<?xml version="1.0" encoding="iso-8859-1"?>
<!-- Generator: Adobe Illustrator 19.0.0, SVG Export Plug-In . SVG Version: 6.00 Build 0)  -->
<svg xmlns="http://www.w3.org/2000/svg" xmlns:xlink="http://www.w3.org/1999/xlink" version="1.1" id="Layer_1" x="0px" y="0px" viewBox="0 0 512 512" style="enable-background:new 0 0 512 512;" xml:space="preserve" width="512" height="512">
<g>
	<g>
		<path d="M56.033,189.72c5.562,0,10.07-4.509,10.07-10.071v-0.199c0-5.562-4.509-10.071-10.07-10.071    c-5.562,0-10.07,4.509-10.07,10.071v0.199C45.963,185.211,50.472,189.72,56.033,189.72z"/>
		<path d="M489.007,430.325l-54.012-54.038V243.705h44.764c5.561,0,10.07-4.509,10.07-10.071v-43.557    c0-5.562-4.51-10.071-10.07-10.071h-44.764V74.428c0-2.604-1.056-5.302-2.948-7.12L367.723,2.951C365.846,1.08,363.252,0,360.6,0    H75.039C59.006,0,45.963,13.047,45.963,29.086V139.72c0,5.562,4.509,10.071,10.07,10.071c5.562,0,10.07-4.509,10.07-10.071V29.086    c0-4.932,4.008-8.944,8.935-8.944h275.491v35.271c0,16.039,13.043,29.086,29.076,29.086h35.248v95.508h-1.43    c-5.561,0-10.069,4.509-10.069,10.071v11.693h-19.509c-21.447-56.585-76.183-96.918-140.167-96.918    c-82.611,0-149.82,67.254-149.82,149.922c0,54.424,29.144,102.161,72.635,128.424l-9.771,16.886H95.504v-11.722    c0-5.562-4.509-10.071-10.07-10.071h-19.33V219.549c0-5.561-4.509-10.071-10.07-10.071c-5.562,0-10.07,4.509-10.07,10.071v158.742    H19.07C13.509,378.291,9,382.8,9,388.362v43.585c0,5.562,4.509,10.071,10.07,10.071h26.892v16.936    c0,16.038,13.043,29.085,29.076,29.085h336.308l10.002,10.007c9.012,8.999,21.024,13.954,33.825,13.954    c12.802,0,24.815-4.956,33.833-13.961C507.664,479.37,507.664,448.994,489.007,430.325z M469.688,200.148v23.415h-46.191v-23.415    H469.688z M370.671,55.412v-21.02l29.949,29.965h-21.015C374.679,64.357,370.671,60.344,370.671,55.412z M389.893,221.912h13.462    v11.722c0,5.562,4.509,10.071,10.069,10.071h1.43v117.047c-5.983-2.621-12.509-4.011-19.263-4.011    c-2.658,0-5.278,0.225-7.849,0.644l-19.857-18.838c16.184-23.932,25.644-52.768,25.644-83.772    C393.529,243.488,392.267,232.492,389.893,221.912z M373.387,254.774c0,71.545-58.186,129.751-129.708,129.751    c-17.366,0-33.941-3.442-49.092-9.665l10.533-18.205c11.992,4.558,24.988,7.062,38.559,7.062    c60.043,0,108.894-48.872,108.894-108.943c0-11.449-1.779-22.488-5.067-32.862h21.665    C371.919,232.412,373.387,243.424,373.387,254.774z M367.414,365.863c-1.992,1.453-3.89,3.064-5.666,4.837    c-2.785,2.787-5.145,5.839-7.099,9.069l-12.629-11.992c4.747-4.139,9.227-8.575,13.422-13.272L367.414,365.863z M243.679,264.845    h88.178c-5.015,44.241-42.644,78.731-88.178,78.731c-9.895,0-19.415-1.63-28.311-4.633l24.876-42.994    c2.786-4.814,1.142-10.975-3.672-13.761c-4.814-2.785-10.974-1.142-13.76,3.673l-25.726,44.462    c-25.281-15.666-42.159-43.671-42.159-75.548c0-45.559,34.468-83.208,78.681-88.227v88.227    C233.608,260.336,238.117,264.845,243.679,264.845z M290.243,221.912h35.884c2.872,7.185,4.827,14.831,5.729,22.792h-78.107    v-78.157c24.949,2.832,46.796,16.051,61.096,35.224h-24.602c-5.561,0-10.07,4.509-10.07,10.071    C280.173,217.403,284.682,221.912,290.243,221.912z M113.999,254.774c0-71.561,58.174-129.78,129.68-129.78    c52.662,0,98.09,31.565,118.389,76.776h-23.283c-18.639-33.344-54.281-55.94-95.105-55.94    c-60.043,0-108.892,48.872-108.892,108.944c0,39.313,20.922,73.826,52.21,92.987l-10.419,18.007    C139.094,342.999,113.999,301.764,113.999,254.774z M29.141,421.876v-23.443h46.223v23.443H29.141z M75.039,467.897    c-4.927,0-8.935-4.012-8.935-8.944v-16.936h19.33c5.561,0,10.07-4.509,10.07-10.071v-11.721h66.987    c3.57,0,6.962-1.936,8.756-5.027l13.173-22.767c18.186,7.866,38.221,12.235,59.259,12.235c30.283,0,58.49-9.04,82.083-24.553    l22.127,21.011c-0.953,13.378,3.658,27.083,13.859,37.289l29.468,29.483H75.039z M474.769,483.793    c-5.208,5.201-12.167,8.065-19.595,8.065c-7.427,0-14.386-2.864-19.587-8.058l-59.594-59.625    c-6.639-6.641-9.194-15.838-7.683-24.451c0.075-0.31,0.136-0.622,0.181-0.936c1.07-5.076,3.564-9.909,7.496-13.841    c5.207-5.201,12.17-8.065,19.604-8.065c7.432,0,14.384,2.862,19.576,8.058l59.596,59.624    C485.571,455.381,485.571,472.983,474.769,483.793z"/>
	</g>
</g>















</svg>
