<svg xmlns="http://www.w3.org/2000/svg" xmlns:xlink="http://www.w3.org/1999/xlink" version="1.1" class="marks" width="904" height="569" viewBox="0 0 904 569"><rect width="904" height="569" fill="white"/><g fill="none" stroke-miterlimit="10" transform="translate(53,11)"><g class="mark-group role-frame root" role="graphics-object" aria-roledescription="group mark container"><g transform="translate(0,0)"><path class="background" aria-hidden="true" d="M0,0h0v0h0Z"/><g><g class="mark-group role-scope concat_0_group" role="graphics-object" aria-roledescription="group mark container"><g transform="translate(0,0)"><path class="background" aria-hidden="true" d="M0.5,0.5h60v500h-60Z" stroke="#ddd"/><g><g class="mark-group role-axis" role="graphics-symbol" aria-roledescription="axis" aria-label="Y-axis for a linear scale with values from −8 to 14"><g transform="translate(0.5,0.5)"><path class="background" aria-hidden="true" d="M0,0h0v0h0Z" pointer-events="none"/><g><g class="mark-rule role-axis-grid" pointer-events="none"><line transform="translate(0,500)" x2="60" y2="0" stroke="#ddd" stroke-width="1" opacity="1"/><line transform="translate(0,455)" x2="60" y2="0" stroke="#ddd" stroke-width="1" opacity="1"/><line transform="translate(0,409)" x2="60" y2="0" stroke="#ddd" stroke-width="1" opacity="1"/><line transform="translate(0,364)" x2="60" y2="0" stroke="#ddd" stroke-width="1" opacity="1"/><line transform="translate(0,318)" x2="60" y2="0" stroke="#ddd" stroke-width="1" opacity="1"/><line transform="translate(0,273)" x2="60" y2="0" stroke="#ddd" stroke-width="1" opacity="1"/><line transform="translate(0,227)" x2="60" y2="0" stroke="#ddd" stroke-width="1" opacity="1"/><line transform="translate(0,182)" x2="60" y2="0" stroke="#ddd" stroke-width="1" opacity="1"/><line transform="translate(0,136)" x2="60" y2="0" stroke="#ddd" stroke-width="1" opacity="1"/><line transform="translate(0,91)" x2="60" y2="0" stroke="#ddd" stroke-width="1" opacity="1"/><line transform="translate(0,45)" x2="60" y2="0" stroke="#ddd" stroke-width="1" opacity="1"/><line transform="translate(0,0)" x2="60" y2="0" stroke="#ddd" stroke-width="1" opacity="1"/></g></g><path class="foreground" aria-hidden="true" d="" pointer-events="none" display="none"/></g></g><g class="mark-group role-axis" role="graphics-symbol" aria-roledescription="axis" aria-label="Y-axis titled '% Difference in Remaining Misinformation (Influentials - FIBers)' for a linear scale with values from −8 to 14"><g transform="translate(0.5,0.5)"><path class="background" aria-hidden="true" d="M0,0h0v0h0Z" pointer-events="none"/><g><g class="mark-rule role-axis-tick" pointer-events="none"><line transform="translate(0,500)" x2="-5" y2="0" stroke="#888" stroke-width="1" opacity="1"/><line transform="translate(0,455)" x2="-5" y2="0" stroke="#888" stroke-width="1" opacity="1"/><line transform="translate(0,409)" x2="-5" y2="0" stroke="#888" stroke-width="1" opacity="1"/><line transform="translate(0,364)" x2="-5" y2="0" stroke="#888" stroke-width="1" opacity="1"/><line transform="translate(0,318)" x2="-5" y2="0" stroke="#888" stroke-width="1" opacity="1"/><line transform="translate(0,273)" x2="-5" y2="0" stroke="#888" stroke-width="1" opacity="1"/><line transform="translate(0,227)" x2="-5" y2="0" stroke="#888" stroke-width="1" opacity="1"/><line transform="translate(0,182)" x2="-5" y2="0" stroke="#888" stroke-width="1" opacity="1"/><line transform="translate(0,136)" x2="-5" y2="0" stroke="#888" stroke-width="1" opacity="1"/><line transform="translate(0,91)" x2="-5" y2="0" stroke="#888" stroke-width="1" opacity="1"/><line transform="translate(0,45)" x2="-5" y2="0" stroke="#888" stroke-width="1" opacity="1"/><line transform="translate(0,0)" x2="-5" y2="0" stroke="#888" stroke-width="1" opacity="1"/></g><g class="mark-text role-axis-label" pointer-events="none"><text text-anchor="end" transform="translate(-7,503)" font-family="sans-serif" font-size="10px" fill="#000" opacity="1">−8</text><text text-anchor="end" transform="translate(-7,457.5454545454545)" font-family="sans-serif" font-size="10px" fill="#000" opacity="1">−6</text><text text-anchor="end" transform="translate(-7,412.09090909090907)" font-family="sans-serif" font-size="10px" fill="#000" opacity="1">−4</text><text text-anchor="end" transform="translate(-7,366.6363636363636)" font-family="sans-serif" font-size="10px" fill="#000" opacity="1">−2</text><text text-anchor="end" transform="translate(-7,321.1818181818182)" font-family="sans-serif" font-size="10px" fill="#000" opacity="1">0</text><text text-anchor="end" transform="translate(-7,275.7272727272727)" font-family="sans-serif" font-size="10px" fill="#000" opacity="1">2</text><text text-anchor="end" transform="translate(-7,230.27272727272728)" font-family="sans-serif" font-size="10px" fill="#000" opacity="1">4</text><text text-anchor="end" transform="translate(-7,184.8181818181818)" font-family="sans-serif" font-size="10px" fill="#000" opacity="1">6</text><text text-anchor="end" transform="translate(-7,139.36363636363635)" font-family="sans-serif" font-size="10px" fill="#000" opacity="1">8</text><text text-anchor="end" transform="translate(-7,93.90909090909088)" font-family="sans-serif" font-size="10px" fill="#000" opacity="1">10</text><text text-anchor="end" transform="translate(-7,48.45454545454547)" font-family="sans-serif" font-size="10px" fill="#000" opacity="1">12</text><text text-anchor="end" transform="translate(-7,3)" font-family="sans-serif" font-size="10px" fill="#000" opacity="1">14</text></g><g class="mark-rule role-axis-domain" pointer-events="none"><line transform="translate(0,500)" x2="0" y2="-500" stroke="#888" stroke-width="1" opacity="1"/></g><g class="mark-text role-axis-title" pointer-events="none"><text text-anchor="middle" transform="translate(-35.39999961853027,250) rotate(-90) translate(0,-2)" font-family="sans-serif" font-size="11px" font-weight="bold" fill="#000" opacity="1"><tspan>% Difference in Remaining Misinformation</tspan><tspan x="0" dy="13">(Influentials - FIBers)</tspan></text></g></g><path class="foreground" aria-hidden="true" d="" pointer-events="none" display="none"/></g></g><g class="mark-symbol role-mark concat_0_layer_0_layer_0_layer_0_marks" role="graphics-symbol" aria-roledescription="symbol mark container"><path transform="translate(30,447.4459578493105)" d="M2.7386127875258306,0A2.7386127875258306,2.7386127875258306,0,1,1,-2.7386127875258306,0A2.7386127875258306,2.7386127875258306,0,1,1,2.7386127875258306,0" stroke="#4c78a8" stroke-width="2" opacity="0.7"/><path transform="translate(30,447.4459578493105)" d="M2.7386127875258306,0A2.7386127875258306,2.7386127875258306,0,1,1,-2.7386127875258306,0A2.7386127875258306,2.7386127875258306,0,1,1,2.7386127875258306,0" stroke="#4c78a8" stroke-width="2" opacity="0.7"/><path transform="translate(30,447.4459578493105)" d="M2.7386127875258306,0A2.7386127875258306,2.7386127875258306,0,1,1,-2.7386127875258306,0A2.7386127875258306,2.7386127875258306,0,1,1,2.7386127875258306,0" stroke="#4c78a8" stroke-width="2" opacity="0.7"/><path transform="translate(30,126.49328927441067)" d="M2.7386127875258306,0A2.7386127875258306,2.7386127875258306,0,1,1,-2.7386127875258306,0A2.7386127875258306,2.7386127875258306,0,1,1,2.7386127875258306,0" stroke="#4c78a8" stroke-width="2" opacity="0.7"/><path transform="translate(30,98.90676453163077)" d="M2.7386127875258306,0A2.7386127875258306,2.7386127875258306,0,1,1,-2.7386127875258306,0A2.7386127875258306,2.7386127875258306,0,1,1,2.7386127875258306,0" stroke="#4c78a8" stroke-width="2" opacity="0.7"/><path transform="translate(30,64.36633697084166)" d="M2.7386127875258306,0A2.7386127875258306,2.7386127875258306,0,1,1,-2.7386127875258306,0A2.7386127875258306,2.7386127875258306,0,1,1,2.7386127875258306,0" stroke="#4c78a8" stroke-width="2" opacity="0.7"/><path transform="translate(30,30.7194407620765)" d="M2.7386127875258306,0A2.7386127875258306,2.7386127875258306,0,1,1,-2.7386127875258306,0A2.7386127875258306,2.7386127875258306,0,1,1,2.7386127875258306,0" stroke="#4c78a8" stroke-width="2" opacity="0.7"/><path transform="translate(30,23.703571915661968)" d="M2.7386127875258306,0A2.7386127875258306,2.7386127875258306,0,1,1,-2.7386127875258306,0A2.7386127875258306,2.7386127875258306,0,1,1,2.7386127875258306,0" stroke="#4c78a8" stroke-width="2" opacity="0.7"/><path transform="translate(30,24.275912687116875)" d="M2.7386127875258306,0A2.7386127875258306,2.7386127875258306,0,1,1,-2.7386127875258306,0A2.7386127875258306,2.7386127875258306,0,1,1,2.7386127875258306,0" stroke="#4c78a8" stroke-width="2" opacity="0.7"/><path transform="translate(30,31.918765075489798)" d="M2.7386127875258306,0A2.7386127875258306,2.7386127875258306,0,1,1,-2.7386127875258306,0A2.7386127875258306,2.7386127875258306,0,1,1,2.7386127875258306,0" stroke="#4c78a8" stroke-width="2" opacity="0.7"/><path transform="translate(30,72.17922038564257)" d="M2.7386127875258306,0A2.7386127875258306,2.7386127875258306,0,1,1,-2.7386127875258306,0A2.7386127875258306,2.7386127875258306,0,1,1,2.7386127875258306,0" stroke="#4c78a8" stroke-width="2" opacity="0.7"/><path transform="translate(30,74.7471489355222)" d="M2.7386127875258306,0A2.7386127875258306,2.7386127875258306,0,1,1,-2.7386127875258306,0A2.7386127875258306,2.7386127875258306,0,1,1,2.7386127875258306,0" stroke="#4c78a8" stroke-width="2" opacity="0.7"/><path transform="translate(30,42.29938926432625)" d="M2.7386127875258306,0A2.7386127875258306,2.7386127875258306,0,1,1,-2.7386127875258306,0A2.7386127875258306,2.7386127875258306,0,1,1,2.7386127875258306,0" stroke="#4c78a8" stroke-width="2" opacity="0.7"/><path transform="translate(30,66.98693664486588)" d="M2.7386127875258306,0A2.7386127875258306,2.7386127875258306,0,1,1,-2.7386127875258306,0A2.7386127875258306,2.7386127875258306,0,1,1,2.7386127875258306,0" stroke="#4c78a8" stroke-width="2" opacity="0.7"/><path transform="translate(30,71.17706070806534)" d="M2.7386127875258306,0A2.7386127875258306,2.7386127875258306,0,1,1,-2.7386127875258306,0A2.7386127875258306,2.7386127875258306,0,1,1,2.7386127875258306,0" stroke="#4c78a8" stroke-width="2" opacity="0.7"/><path transform="translate(30,69.41562940667639)" d="M2.7386127875258306,0A2.7386127875258306,2.7386127875258306,0,1,1,-2.7386127875258306,0A2.7386127875258306,2.7386127875258306,0,1,1,2.7386127875258306,0" stroke="#4c78a8" stroke-width="2" opacity="0.7"/><path transform="translate(30,99.94131554223812)" d="M2.7386127875258306,0A2.7386127875258306,2.7386127875258306,0,1,1,-2.7386127875258306,0A2.7386127875258306,2.7386127875258306,0,1,1,2.7386127875258306,0" stroke="#4c78a8" stroke-width="2" opacity="0.7"/><path transform="translate(30,93.72771898783161)" d="M2.7386127875258306,0A2.7386127875258306,2.7386127875258306,0,1,1,-2.7386127875258306,0A2.7386127875258306,2.7386127875258306,0,1,1,2.7386127875258306,0" stroke="#4c78a8" stroke-width="2" opacity="0.7"/><path transform="translate(30,143.9353179517478)" d="M2.7386127875258306,0A2.7386127875258306,2.7386127875258306,0,1,1,-2.7386127875258306,0A2.7386127875258306,2.7386127875258306,0,1,1,2.7386127875258306,0" stroke="#4c78a8" stroke-width="2" opacity="0.7"/><path transform="translate(30,164.8789905615299)" d="M2.7386127875258306,0A2.7386127875258306,2.7386127875258306,0,1,1,-2.7386127875258306,0A2.7386127875258306,2.7386127875258306,0,1,1,2.7386127875258306,0" stroke="#4c78a8" stroke-width="2" opacity="0.7"/></g><g class="mark-rule role-mark concat_0_layer_0_layer_0_layer_1_layer_0_marks" role="graphics-symbol" aria-roledescription="rule mark container"><line transform="translate(30,344.1799470631355)" x2="0" y2="-25.301856053051154" stroke="black"/></g><g class="mark-rule role-mark concat_0_layer_0_layer_0_layer_1_layer_1_marks" role="graphics-symbol" aria-roledescription="rule mark container"><line transform="translate(30,262.9802267680232)" x2="0" y2="-72.24910304361646" stroke="black"/></g><g class="mark-rect role-mark concat_0_layer_0_layer_1_layer_0_marks" role="graphics-symbol" aria-roledescription="rect mark container"><path d="M20,262.9802267680232h20v55.89786424206113h-20Z" fill="#4c78a8"/></g><g class="mark-rect role-mark concat_0_layer_0_layer_1_layer_1_marks" role="graphics-symbol" aria-roledescription="rect mark container"><path d="M20,291.9350272672307h20v1h-20Z" fill="white" opacity="0.7"/></g><g class="mark-rule role-mark concat_0_layer_1_marks" role="graphics-symbol" aria-roledescription="rule mark container"><line transform="translate(60,292.4350272672307)" x2="-60" y2="0" stroke="#30BCED" stroke-width="1.5"/></g><g class="mark-rule role-mark concat_0_layer_2_marks" role="graphics-symbol" aria-roledescription="rule mark container"><line transform="translate(60,273.5112490332701)" x2="-60" y2="0" stroke="black" stroke-width="1.5"/></g></g><path class="foreground" aria-hidden="true" d="" display="none"/></g></g><g class="mark-group role-scope concat_1_group" role="graphics-object" aria-roledescription="group mark container"><g transform="translate(103,0)"><path class="background" aria-hidden="true" d="M0.5,0.5h600v500h-600Z" stroke="#ddd"/><g><g class="mark-group role-axis" role="graphics-symbol" aria-roledescription="axis" aria-label="Y-axis for a linear scale with values from −8 to 14"><g transform="translate(0.5,0.5)"><path class="background" aria-hidden="true" d="M0,0h0v0h0Z" pointer-events="none"/><g><g class="mark-rule role-axis-grid" pointer-events="none"><line transform="translate(0,500)" x2="600" y2="0" stroke="#ddd" stroke-width="1" opacity="1"/><line transform="translate(0,455)" x2="600" y2="0" stroke="#ddd" stroke-width="1" opacity="1"/><line transform="translate(0,409)" x2="600" y2="0" stroke="#ddd" stroke-width="1" opacity="1"/><line transform="translate(0,364)" x2="600" y2="0" stroke="#ddd" stroke-width="1" opacity="1"/><line transform="translate(0,318)" x2="600" y2="0" stroke="#ddd" stroke-width="1" opacity="1"/><line transform="translate(0,273)" x2="600" y2="0" stroke="#ddd" stroke-width="1" opacity="1"/><line transform="translate(0,227)" x2="600" y2="0" stroke="#ddd" stroke-width="1" opacity="1"/><line transform="translate(0,182)" x2="600" y2="0" stroke="#ddd" stroke-width="1" opacity="1"/><line transform="translate(0,136)" x2="600" y2="0" stroke="#ddd" stroke-width="1" opacity="1"/><line transform="translate(0,91)" x2="600" y2="0" stroke="#ddd" stroke-width="1" opacity="1"/><line transform="translate(0,45)" x2="600" y2="0" stroke="#ddd" stroke-width="1" opacity="1"/><line transform="translate(0,0)" x2="600" y2="0" stroke="#ddd" stroke-width="1" opacity="1"/></g></g><path class="foreground" aria-hidden="true" d="" pointer-events="none" display="none"/></g></g><g class="mark-group role-axis" role="graphics-symbol" aria-roledescription="axis" aria-label="X-axis titled 'Rank (based on selection method)' for a discrete scale with 181 values: 0, 1, 2, 3, 4, ending with 180"><g transform="translate(0.5,500.5)"><path class="background" aria-hidden="true" d="M0,0h0v0h0Z" pointer-events="none"/><g><g class="mark-rule role-axis-tick" pointer-events="none"><line transform="translate(1,0)" x2="0" y2="5" stroke="#888" stroke-width="1" opacity="1"/><line transform="translate(4,0)" x2="0" y2="5" stroke="#888" stroke-width="1" opacity="1"/><line transform="translate(8,0)" x2="0" y2="5" stroke="#888" stroke-width="1" opacity="1"/><line transform="translate(11,0)" x2="0" y2="5" stroke="#888" stroke-width="1" opacity="1"/><line transform="translate(14,0)" x2="0" y2="5" stroke="#888" stroke-width="1" opacity="1"/><line transform="translate(18,0)" x2="0" y2="5" stroke="#888" stroke-width="1" opacity="1"/><line transform="translate(21,0)" x2="0" y2="5" stroke="#888" stroke-width="1" opacity="1"/><line transform="translate(24,0)" x2="0" y2="5" stroke="#888" stroke-width="1" opacity="1"/><line transform="translate(28,0)" x2="0" y2="5" stroke="#888" stroke-width="1" opacity="1"/><line transform="translate(31,0)" x2="0" y2="5" stroke="#888" stroke-width="1" opacity="1"/><line transform="translate(34,0)" x2="0" y2="5" stroke="#888" stroke-width="1" opacity="1"/><line transform="translate(38,0)" x2="0" y2="5" stroke="#888" stroke-width="1" opacity="1"/><line transform="translate(41,0)" x2="0" y2="5" stroke="#888" stroke-width="1" opacity="1"/><line transform="translate(44,0)" x2="0" y2="5" stroke="#888" stroke-width="1" opacity="1"/><line transform="translate(48,0)" x2="0" y2="5" stroke="#888" stroke-width="1" opacity="1"/><line transform="translate(51,0)" x2="0" y2="5" stroke="#888" stroke-width="1" opacity="1"/><line transform="translate(54,0)" x2="0" y2="5" stroke="#888" stroke-width="1" opacity="1"/><line transform="translate(58,0)" x2="0" y2="5" stroke="#888" stroke-width="1" opacity="1"/><line transform="translate(61,0)" x2="0" y2="5" stroke="#888" stroke-width="1" opacity="1"/><line transform="translate(64,0)" x2="0" y2="5" stroke="#888" stroke-width="1" opacity="1"/><line transform="translate(67,0)" x2="0" y2="5" stroke="#888" stroke-width="1" opacity="1"/><line transform="translate(71,0)" x2="0" y2="5" stroke="#888" stroke-width="1" opacity="1"/><line transform="translate(74,0)" x2="0" y2="5" stroke="#888" stroke-width="1" opacity="1"/><line transform="translate(77,0)" x2="0" y2="5" stroke="#888" stroke-width="1" opacity="1"/><line transform="translate(81,0)" x2="0" y2="5" stroke="#888" stroke-width="1" opacity="1"/><line transform="translate(84,0)" x2="0" y2="5" stroke="#888" stroke-width="1" opacity="1"/><line transform="translate(87,0)" x2="0" y2="5" stroke="#888" stroke-width="1" opacity="1"/><line transform="translate(91,0)" x2="0" y2="5" stroke="#888" stroke-width="1" opacity="1"/><line transform="translate(94,0)" x2="0" y2="5" stroke="#888" stroke-width="1" opacity="1"/><line transform="translate(97,0)" x2="0" y2="5" stroke="#888" stroke-width="1" opacity="1"/><line transform="translate(101,0)" x2="0" y2="5" stroke="#888" stroke-width="1" opacity="1"/><line transform="translate(104,0)" x2="0" y2="5" stroke="#888" stroke-width="1" opacity="1"/><line transform="translate(107,0)" x2="0" y2="5" stroke="#888" stroke-width="1" opacity="1"/><line transform="translate(111,0)" x2="0" y2="5" stroke="#888" stroke-width="1" opacity="1"/><line transform="translate(114,0)" x2="0" y2="5" stroke="#888" stroke-width="1" opacity="1"/><line transform="translate(117,0)" x2="0" y2="5" stroke="#888" stroke-width="1" opacity="1"/><line transform="translate(120,0)" x2="0" y2="5" stroke="#888" stroke-width="1" opacity="1"/><line transform="translate(124,0)" x2="0" y2="5" stroke="#888" stroke-width="1" opacity="1"/><line transform="translate(127,0)" x2="0" y2="5" stroke="#888" stroke-width="1" opacity="1"/><line transform="translate(130,0)" x2="0" y2="5" stroke="#888" stroke-width="1" opacity="1"/><line transform="translate(134,0)" x2="0" y2="5" stroke="#888" stroke-width="1" opacity="1"/><line transform="translate(137,0)" x2="0" y2="5" stroke="#888" stroke-width="1" opacity="1"/><line transform="translate(140,0)" x2="0" y2="5" stroke="#888" stroke-width="1" opacity="1"/><line transform="translate(144,0)" x2="0" y2="5" stroke="#888" stroke-width="1" opacity="1"/><line transform="translate(147,0)" x2="0" y2="5" stroke="#888" stroke-width="1" opacity="1"/><line transform="translate(150,0)" x2="0" y2="5" stroke="#888" stroke-width="1" opacity="1"/><line transform="translate(154,0)" x2="0" y2="5" stroke="#888" stroke-width="1" opacity="1"/><line transform="translate(157,0)" x2="0" y2="5" stroke="#888" stroke-width="1" opacity="1"/><line transform="translate(160,0)" x2="0" y2="5" stroke="#888" stroke-width="1" opacity="1"/><line transform="translate(164,0)" x2="0" y2="5" stroke="#888" stroke-width="1" opacity="1"/><line transform="translate(167,0)" x2="0" y2="5" stroke="#888" stroke-width="1" opacity="1"/><line transform="translate(170,0)" x2="0" y2="5" stroke="#888" stroke-width="1" opacity="1"/><line transform="translate(174,0)" x2="0" y2="5" stroke="#888" stroke-width="1" opacity="1"/><line transform="translate(177,0)" x2="0" y2="5" stroke="#888" stroke-width="1" opacity="1"/><line transform="translate(180,0)" x2="0" y2="5" stroke="#888" stroke-width="1" opacity="1"/><line transform="translate(183,0)" x2="0" y2="5" stroke="#888" stroke-width="1" opacity="1"/><line transform="translate(187,0)" x2="0" y2="5" stroke="#888" stroke-width="1" opacity="1"/><line transform="translate(190,0)" x2="0" y2="5" stroke="#888" stroke-width="1" opacity="1"/><line transform="translate(193,0)" x2="0" y2="5" stroke="#888" stroke-width="1" opacity="1"/><line transform="translate(197,0)" x2="0" y2="5" stroke="#888" stroke-width="1" opacity="1"/><line transform="translate(200,0)" x2="0" y2="5" stroke="#888" stroke-width="1" opacity="1"/><line transform="translate(203,0)" x2="0" y2="5" stroke="#888" stroke-width="1" opacity="1"/><line transform="translate(207,0)" x2="0" y2="5" stroke="#888" stroke-width="1" opacity="1"/><line transform="translate(210,0)" x2="0" y2="5" stroke="#888" stroke-width="1" opacity="1"/><line transform="translate(213,0)" x2="0" y2="5" stroke="#888" stroke-width="1" opacity="1"/><line transform="translate(217,0)" x2="0" y2="5" stroke="#888" stroke-width="1" opacity="1"/><line transform="translate(220,0)" x2="0" y2="5" stroke="#888" stroke-width="1" opacity="1"/><line transform="translate(223,0)" x2="0" y2="5" stroke="#888" stroke-width="1" opacity="1"/><line transform="translate(227,0)" x2="0" y2="5" stroke="#888" stroke-width="1" opacity="1"/><line transform="translate(230,0)" x2="0" y2="5" stroke="#888" stroke-width="1" opacity="1"/><line transform="translate(233,0)" x2="0" y2="5" stroke="#888" stroke-width="1" opacity="1"/><line transform="translate(237,0)" x2="0" y2="5" stroke="#888" stroke-width="1" opacity="1"/><line transform="translate(240,0)" x2="0" y2="5" stroke="#888" stroke-width="1" opacity="1"/><line transform="translate(243,0)" x2="0" y2="5" stroke="#888" stroke-width="1" opacity="1"/><line transform="translate(246,0)" x2="0" y2="5" stroke="#888" stroke-width="1" opacity="1"/><line transform="translate(250,0)" x2="0" y2="5" stroke="#888" stroke-width="1" opacity="1"/><line transform="translate(253,0)" x2="0" y2="5" stroke="#888" stroke-width="1" opacity="1"/><line transform="translate(256,0)" x2="0" y2="5" stroke="#888" stroke-width="1" opacity="1"/><line transform="translate(260,0)" x2="0" y2="5" stroke="#888" stroke-width="1" opacity="1"/><line transform="translate(263,0)" x2="0" y2="5" stroke="#888" stroke-width="1" opacity="1"/><line transform="translate(266,0)" x2="0" y2="5" stroke="#888" stroke-width="1" opacity="1"/><line transform="translate(270,0)" x2="0" y2="5" stroke="#888" stroke-width="1" opacity="1"/><line transform="translate(273,0)" x2="0" y2="5" stroke="#888" stroke-width="1" opacity="1"/><line transform="translate(276,0)" x2="0" y2="5" stroke="#888" stroke-width="1" opacity="1"/><line transform="translate(280,0)" x2="0" y2="5" stroke="#888" stroke-width="1" opacity="1"/><line transform="translate(283,0)" x2="0" y2="5" stroke="#888" stroke-width="1" opacity="1"/><line transform="translate(286,0)" x2="0" y2="5" stroke="#888" stroke-width="1" opacity="1"/><line transform="translate(290,0)" x2="0" y2="5" stroke="#888" stroke-width="1" opacity="1"/><line transform="translate(293,0)" x2="0" y2="5" stroke="#888" stroke-width="1" opacity="1"/><line transform="translate(296,0)" x2="0" y2="5" stroke="#888" stroke-width="1" opacity="1"/><line transform="translate(300,0)" x2="0" y2="5" stroke="#888" stroke-width="1" opacity="1"/><line transform="translate(303,0)" x2="0" y2="5" stroke="#888" stroke-width="1" opacity="1"/><line transform="translate(306,0)" x2="0" y2="5" stroke="#888" stroke-width="1" opacity="1"/><line transform="translate(309,0)" x2="0" y2="5" stroke="#888" stroke-width="1" opacity="1"/><line transform="translate(313,0)" x2="0" y2="5" stroke="#888" stroke-width="1" opacity="1"/><line transform="translate(316,0)" x2="0" y2="5" stroke="#888" stroke-width="1" opacity="1"/><line transform="translate(319,0)" x2="0" y2="5" stroke="#888" stroke-width="1" opacity="1"/><line transform="translate(323,0)" x2="0" y2="5" stroke="#888" stroke-width="1" opacity="1"/><line transform="translate(326,0)" x2="0" y2="5" stroke="#888" stroke-width="1" opacity="1"/><line transform="translate(329,0)" x2="0" y2="5" stroke="#888" stroke-width="1" opacity="1"/><line transform="translate(333,0)" x2="0" y2="5" stroke="#888" stroke-width="1" opacity="1"/><line transform="translate(336,0)" x2="0" y2="5" stroke="#888" stroke-width="1" opacity="1"/><line transform="translate(339,0)" x2="0" y2="5" stroke="#888" stroke-width="1" opacity="1"/><line transform="translate(343,0)" x2="0" y2="5" stroke="#888" stroke-width="1" opacity="1"/><line transform="translate(346,0)" x2="0" y2="5" stroke="#888" stroke-width="1" opacity="1"/><line transform="translate(349,0)" x2="0" y2="5" stroke="#888" stroke-width="1" opacity="1"/><line transform="translate(353,0)" x2="0" y2="5" stroke="#888" stroke-width="1" opacity="1"/><line transform="translate(356,0)" x2="0" y2="5" stroke="#888" stroke-width="1" opacity="1"/><line transform="translate(359,0)" x2="0" y2="5" stroke="#888" stroke-width="1" opacity="1"/><line transform="translate(362,0)" x2="0" y2="5" stroke="#888" stroke-width="1" opacity="1"/><line transform="translate(366,0)" x2="0" y2="5" stroke="#888" stroke-width="1" opacity="1"/><line transform="translate(369,0)" x2="0" y2="5" stroke="#888" stroke-width="1" opacity="1"/><line transform="translate(372,0)" x2="0" y2="5" stroke="#888" stroke-width="1" opacity="1"/><line transform="translate(376,0)" x2="0" y2="5" stroke="#888" stroke-width="1" opacity="1"/><line transform="translate(379,0)" x2="0" y2="5" stroke="#888" stroke-width="1" opacity="1"/><line transform="translate(382,0)" x2="0" y2="5" stroke="#888" stroke-width="1" opacity="1"/><line transform="translate(386,0)" x2="0" y2="5" stroke="#888" stroke-width="1" opacity="1"/><line transform="translate(389,0)" x2="0" y2="5" stroke="#888" stroke-width="1" opacity="1"/><line transform="translate(392,0)" x2="0" y2="5" stroke="#888" stroke-width="1" opacity="1"/><line transform="translate(396,0)" x2="0" y2="5" stroke="#888" stroke-width="1" opacity="1"/><line transform="translate(399,0)" x2="0" y2="5" stroke="#888" stroke-width="1" opacity="1"/><line transform="translate(402,0)" x2="0" y2="5" stroke="#888" stroke-width="1" opacity="1"/><line transform="translate(406,0)" x2="0" y2="5" stroke="#888" stroke-width="1" opacity="1"/><line transform="translate(409,0)" x2="0" y2="5" stroke="#888" stroke-width="1" opacity="1"/><line transform="translate(412,0)" x2="0" y2="5" stroke="#888" stroke-width="1" opacity="1"/><line transform="translate(416,0)" x2="0" y2="5" stroke="#888" stroke-width="1" opacity="1"/><line transform="translate(419,0)" x2="0" y2="5" stroke="#888" stroke-width="1" opacity="1"/><line transform="translate(422,0)" x2="0" y2="5" stroke="#888" stroke-width="1" opacity="1"/><line transform="translate(425,0)" x2="0" y2="5" stroke="#888" stroke-width="1" opacity="1"/><line transform="translate(429,0)" x2="0" y2="5" stroke="#888" stroke-width="1" opacity="1"/><line transform="translate(432,0)" x2="0" y2="5" stroke="#888" stroke-width="1" opacity="1"/><line transform="translate(435,0)" x2="0" y2="5" stroke="#888" stroke-width="1" opacity="1"/><line transform="translate(439,0)" x2="0" y2="5" stroke="#888" stroke-width="1" opacity="1"/><line transform="translate(442,0)" x2="0" y2="5" stroke="#888" stroke-width="1" opacity="1"/><line transform="translate(445,0)" x2="0" y2="5" stroke="#888" stroke-width="1" opacity="1"/><line transform="translate(449,0)" x2="0" y2="5" stroke="#888" stroke-width="1" opacity="1"/><line transform="translate(452,0)" x2="0" y2="5" stroke="#888" stroke-width="1" opacity="1"/><line transform="translate(455,0)" x2="0" y2="5" stroke="#888" stroke-width="1" opacity="1"/><line transform="translate(459,0)" x2="0" y2="5" stroke="#888" stroke-width="1" opacity="1"/><line transform="translate(462,0)" x2="0" y2="5" stroke="#888" stroke-width="1" opacity="1"/><line transform="translate(465,0)" x2="0" y2="5" stroke="#888" stroke-width="1" opacity="1"/><line transform="translate(469,0)" x2="0" y2="5" stroke="#888" stroke-width="1" opacity="1"/><line transform="translate(472,0)" x2="0" y2="5" stroke="#888" stroke-width="1" opacity="1"/><line transform="translate(475,0)" x2="0" y2="5" stroke="#888" stroke-width="1" opacity="1"/><line transform="translate(479,0)" x2="0" y2="5" stroke="#888" stroke-width="1" opacity="1"/><line transform="translate(482,0)" x2="0" y2="5" stroke="#888" stroke-width="1" opacity="1"/><line transform="translate(485,0)" x2="0" y2="5" stroke="#888" stroke-width="1" opacity="1"/><line transform="translate(488,0)" x2="0" y2="5" stroke="#888" stroke-width="1" opacity="1"/><line transform="translate(492,0)" x2="0" y2="5" stroke="#888" stroke-width="1" opacity="1"/><line transform="translate(495,0)" x2="0" y2="5" stroke="#888" stroke-width="1" opacity="1"/><line transform="translate(498,0)" x2="0" y2="5" stroke="#888" stroke-width="1" opacity="1"/><line transform="translate(502,0)" x2="0" y2="5" stroke="#888" stroke-width="1" opacity="1"/><line transform="translate(505,0)" x2="0" y2="5" stroke="#888" stroke-width="1" opacity="1"/><line transform="translate(508,0)" x2="0" y2="5" stroke="#888" stroke-width="1" opacity="1"/><line transform="translate(512,0)" x2="0" y2="5" stroke="#888" stroke-width="1" opacity="1"/><line transform="translate(515,0)" x2="0" y2="5" stroke="#888" stroke-width="1" opacity="1"/><line transform="translate(518,0)" x2="0" y2="5" stroke="#888" stroke-width="1" opacity="1"/><line transform="translate(522,0)" x2="0" y2="5" stroke="#888" stroke-width="1" opacity="1"/><line transform="translate(525,0)" x2="0" y2="5" stroke="#888" stroke-width="1" opacity="1"/><line transform="translate(528,0)" x2="0" y2="5" stroke="#888" stroke-width="1" opacity="1"/><line transform="translate(532,0)" x2="0" y2="5" stroke="#888" stroke-width="1" opacity="1"/><line transform="translate(535,0)" x2="0" y2="5" stroke="#888" stroke-width="1" opacity="1"/><line transform="translate(538,0)" x2="0" y2="5" stroke="#888" stroke-width="1" opacity="1"/><line transform="translate(541,0)" x2="0" y2="5" stroke="#888" stroke-width="1" opacity="1"/><line transform="translate(545,0)" x2="0" y2="5" stroke="#888" stroke-width="1" opacity="1"/><line transform="translate(548,0)" x2="0" y2="5" stroke="#888" stroke-width="1" opacity="1"/><line transform="translate(551,0)" x2="0" y2="5" stroke="#888" stroke-width="1" opacity="1"/><line transform="translate(555,0)" x2="0" y2="5" stroke="#888" stroke-width="1" opacity="1"/><line transform="translate(558,0)" x2="0" y2="5" stroke="#888" stroke-width="1" opacity="1"/><line transform="translate(561,0)" x2="0" y2="5" stroke="#888" stroke-width="1" opacity="1"/><line transform="translate(565,0)" x2="0" y2="5" stroke="#888" stroke-width="1" opacity="1"/><line transform="translate(568,0)" x2="0" y2="5" stroke="#888" stroke-width="1" opacity="1"/><line transform="translate(571,0)" x2="0" y2="5" stroke="#888" stroke-width="1" opacity="1"/><line transform="translate(575,0)" x2="0" y2="5" stroke="#888" stroke-width="1" opacity="1"/><line transform="translate(578,0)" x2="0" y2="5" stroke="#888" stroke-width="1" opacity="1"/><line transform="translate(581,0)" x2="0" y2="5" stroke="#888" stroke-width="1" opacity="1"/><line transform="translate(585,0)" x2="0" y2="5" stroke="#888" stroke-width="1" opacity="1"/><line transform="translate(588,0)" x2="0" y2="5" stroke="#888" stroke-width="1" opacity="1"/><line transform="translate(591,0)" x2="0" y2="5" stroke="#888" stroke-width="1" opacity="1"/><line transform="translate(595,0)" x2="0" y2="5" stroke="#888" stroke-width="1" opacity="1"/><line transform="translate(598,0)" x2="0" y2="5" stroke="#888" stroke-width="1" opacity="1"/></g><g class="mark-text role-axis-label" pointer-events="none"><text text-anchor="end" transform="translate(1.1574585635358874,7) rotate(270) translate(0,3)" font-family="sans-serif" font-size="10px" fill="#000" opacity="1">0</text><text text-anchor="end" transform="translate(4.472375690607711,7) rotate(270) translate(0,3)" font-family="sans-serif" font-size="10px" fill="#000" opacity="0">1</text><text text-anchor="end" transform="translate(7.787292817679534,7) rotate(270) translate(0,3)" font-family="sans-serif" font-size="10px" fill="#000" opacity="0">2</text><text text-anchor="end" transform="translate(11.102209944751358,7) rotate(270) translate(0,3)" font-family="sans-serif" font-size="10px" fill="#000" opacity="0">3</text><text text-anchor="end" transform="translate(14.417127071823181,7) rotate(270) translate(0,3)" font-family="sans-serif" font-size="10px" fill="#000" opacity="1">4</text><text text-anchor="end" transform="translate(17.732044198895004,7) rotate(270) translate(0,3)" font-family="sans-serif" font-size="10px" fill="#000" opacity="0">5</text><text text-anchor="end" transform="translate(21.046961325966826,7) rotate(270) translate(0,3)" font-family="sans-serif" font-size="10px" fill="#000" opacity="0">6</text><text text-anchor="end" transform="translate(24.36187845303865,7) rotate(270) translate(0,3)" font-family="sans-serif" font-size="10px" fill="#000" opacity="0">7</text><text text-anchor="end" transform="translate(27.676795580110472,7) rotate(270) translate(0,3)" font-family="sans-serif" font-size="10px" fill="#000" opacity="1">8</text><text text-anchor="end" transform="translate(30.991712707182295,7) rotate(270) translate(0,3)" font-family="sans-serif" font-size="10px" fill="#000" opacity="0">9</text><text text-anchor="end" transform="translate(34.306629834254124,7) rotate(270) translate(0,3)" font-family="sans-serif" font-size="10px" fill="#000" opacity="0">10</text><text text-anchor="end" transform="translate(37.62154696132595,7) rotate(270) translate(0,3)" font-family="sans-serif" font-size="10px" fill="#000" opacity="0">11</text><text text-anchor="end" transform="translate(40.93646408839777,7) rotate(270) translate(0,3)" font-family="sans-serif" font-size="10px" fill="#000" opacity="1">12</text><text text-anchor="end" transform="translate(44.25138121546959,7) rotate(270) translate(0,3)" font-family="sans-serif" font-size="10px" fill="#000" opacity="0">13</text><text text-anchor="end" transform="translate(47.566298342541415,7) rotate(270) translate(0,3)" font-family="sans-serif" font-size="10px" fill="#000" opacity="0">14</text><text text-anchor="end" transform="translate(50.88121546961324,7) rotate(270) translate(0,3)" font-family="sans-serif" font-size="10px" fill="#000" opacity="0">15</text><text text-anchor="end" transform="translate(54.19613259668506,7) rotate(270) translate(0,3)" font-family="sans-serif" font-size="10px" fill="#000" opacity="1">16</text><text text-anchor="end" transform="translate(57.511049723756884,7) rotate(270) translate(0,3)" font-family="sans-serif" font-size="10px" fill="#000" opacity="0">17</text><text text-anchor="end" transform="translate(60.825966850828706,7) rotate(270) translate(0,3)" font-family="sans-serif" font-size="10px" fill="#000" opacity="0">18</text><text text-anchor="end" transform="translate(64.14088397790053,7) rotate(270) translate(0,3)" font-family="sans-serif" font-size="10px" fill="#000" opacity="0">19</text><text text-anchor="end" transform="translate(67.45580110497235,7) rotate(270) translate(0,3)" font-family="sans-serif" font-size="10px" fill="#000" opacity="1">20</text><text text-anchor="end" transform="translate(70.77071823204417,7) rotate(270) translate(0,3)" font-family="sans-serif" font-size="10px" fill="#000" opacity="0">21</text><text text-anchor="end" transform="translate(74.085635359116,7) rotate(270) translate(0,3)" font-family="sans-serif" font-size="10px" fill="#000" opacity="0">22</text><text text-anchor="end" transform="translate(77.40055248618782,7) rotate(270) translate(0,3)" font-family="sans-serif" font-size="10px" fill="#000" opacity="0">23</text><text text-anchor="end" transform="translate(80.71546961325964,7) rotate(270) translate(0,3)" font-family="sans-serif" font-size="10px" fill="#000" opacity="1">24</text><text text-anchor="end" transform="translate(84.03038674033147,7) rotate(270) translate(0,3)" font-family="sans-serif" font-size="10px" fill="#000" opacity="0">25</text><text text-anchor="end" transform="translate(87.34530386740329,7) rotate(270) translate(0,3)" font-family="sans-serif" font-size="10px" fill="#000" opacity="0">26</text><text text-anchor="end" transform="translate(90.66022099447511,7) rotate(270) translate(0,3)" font-family="sans-serif" font-size="10px" fill="#000" opacity="0">27</text><text text-anchor="end" transform="translate(93.97513812154693,7) rotate(270) translate(0,3)" font-family="sans-serif" font-size="10px" fill="#000" opacity="1">28</text><text text-anchor="end" transform="translate(97.29005524861876,7) rotate(270) translate(0,3)" font-family="sans-serif" font-size="10px" fill="#000" opacity="0">29</text><text text-anchor="end" transform="translate(100.60497237569058,7) rotate(270) translate(0,3)" font-family="sans-serif" font-size="10px" fill="#000" opacity="0">30</text><text text-anchor="end" transform="translate(103.9198895027624,7) rotate(270) translate(0,3)" font-family="sans-serif" font-size="10px" fill="#000" opacity="0">31</text><text text-anchor="end" transform="translate(107.23480662983422,7) rotate(270) translate(0,3)" font-family="sans-serif" font-size="10px" fill="#000" opacity="1">32</text><text text-anchor="end" transform="translate(110.54972375690605,7) rotate(270) translate(0,3)" font-family="sans-serif" font-size="10px" fill="#000" opacity="0">33</text><text text-anchor="end" transform="translate(113.86464088397787,7) rotate(270) translate(0,3)" font-family="sans-serif" font-size="10px" fill="#000" opacity="0">34</text><text text-anchor="end" transform="translate(117.17955801104969,7) rotate(270) translate(0,3)" font-family="sans-serif" font-size="10px" fill="#000" opacity="0">35</text><text text-anchor="end" transform="translate(120.49447513812152,7) rotate(270) translate(0,3)" font-family="sans-serif" font-size="10px" fill="#000" opacity="1">36</text><text text-anchor="end" transform="translate(123.80939226519334,7) rotate(270) translate(0,3)" font-family="sans-serif" font-size="10px" fill="#000" opacity="0">37</text><text text-anchor="end" transform="translate(127.12430939226516,7) rotate(270) translate(0,3)" font-family="sans-serif" font-size="10px" fill="#000" opacity="0">38</text><text text-anchor="end" transform="translate(130.439226519337,7) rotate(270) translate(0,3)" font-family="sans-serif" font-size="10px" fill="#000" opacity="0">39</text><text text-anchor="end" transform="translate(133.75414364640883,7) rotate(270) translate(0,3)" font-family="sans-serif" font-size="10px" fill="#000" opacity="1">40</text><text text-anchor="end" transform="translate(137.06906077348066,7) rotate(270) translate(0,3)" font-family="sans-serif" font-size="10px" fill="#000" opacity="0">41</text><text text-anchor="end" transform="translate(140.38397790055248,7) rotate(270) translate(0,3)" font-family="sans-serif" font-size="10px" fill="#000" opacity="0">42</text><text text-anchor="end" transform="translate(143.6988950276243,7) rotate(270) translate(0,3)" font-family="sans-serif" font-size="10px" fill="#000" opacity="0">43</text><text text-anchor="end" transform="translate(147.01381215469613,7) rotate(270) translate(0,3)" font-family="sans-serif" font-size="10px" fill="#000" opacity="1">44</text><text text-anchor="end" transform="translate(150.32872928176795,7) rotate(270) translate(0,3)" font-family="sans-serif" font-size="10px" fill="#000" opacity="0">45</text><text text-anchor="end" transform="translate(153.64364640883977,7) rotate(270) translate(0,3)" font-family="sans-serif" font-size="10px" fill="#000" opacity="0">46</text><text text-anchor="end" transform="translate(156.9585635359116,7) rotate(270) translate(0,3)" font-family="sans-serif" font-size="10px" fill="#000" opacity="0">47</text><text text-anchor="end" transform="translate(160.27348066298342,7) rotate(270) translate(0,3)" font-family="sans-serif" font-size="10px" fill="#000" opacity="1">48</text><text text-anchor="end" transform="translate(163.58839779005524,7) rotate(270) translate(0,3)" font-family="sans-serif" font-size="10px" fill="#000" opacity="0">49</text><text text-anchor="end" transform="translate(166.90331491712706,7) rotate(270) translate(0,3)" font-family="sans-serif" font-size="10px" fill="#000" opacity="0">50</text><text text-anchor="end" transform="translate(170.21823204419888,7) rotate(270) translate(0,3)" font-family="sans-serif" font-size="10px" fill="#000" opacity="0">51</text><text text-anchor="end" transform="translate(173.5331491712707,7) rotate(270) translate(0,3)" font-family="sans-serif" font-size="10px" fill="#000" opacity="1">52</text><text text-anchor="end" transform="translate(176.84806629834253,7) rotate(270) translate(0,3)" font-family="sans-serif" font-size="10px" fill="#000" opacity="0">53</text><text text-anchor="end" transform="translate(180.16298342541435,7) rotate(270) translate(0,3)" font-family="sans-serif" font-size="10px" fill="#000" opacity="0">54</text><text text-anchor="end" transform="translate(183.47790055248618,7) rotate(270) translate(0,3)" font-family="sans-serif" font-size="10px" fill="#000" opacity="0">55</text><text text-anchor="end" transform="translate(186.792817679558,7) rotate(270) translate(0,3)" font-family="sans-serif" font-size="10px" fill="#000" opacity="1">56</text><text text-anchor="end" transform="translate(190.10773480662982,7) rotate(270) translate(0,3)" font-family="sans-serif" font-size="10px" fill="#000" opacity="0">57</text><text text-anchor="end" transform="translate(193.42265193370164,7) rotate(270) translate(0,3)" font-family="sans-serif" font-size="10px" fill="#000" opacity="0">58</text><text text-anchor="end" transform="translate(196.73756906077347,7) rotate(270) translate(0,3)" font-family="sans-serif" font-size="10px" fill="#000" opacity="0">59</text><text text-anchor="end" transform="translate(200.0524861878453,7) rotate(270) translate(0,3)" font-family="sans-serif" font-size="10px" fill="#000" opacity="1">60</text><text text-anchor="end" transform="translate(203.3674033149171,7) rotate(270) translate(0,3)" font-family="sans-serif" font-size="10px" fill="#000" opacity="0">61</text><text text-anchor="end" transform="translate(206.68232044198894,7) rotate(270) translate(0,3)" font-family="sans-serif" font-size="10px" fill="#000" opacity="0">62</text><text text-anchor="end" transform="translate(209.99723756906076,7) rotate(270) translate(0,3)" font-family="sans-serif" font-size="10px" fill="#000" opacity="0">63</text><text text-anchor="end" transform="translate(213.31215469613258,7) rotate(270) translate(0,3)" font-family="sans-serif" font-size="10px" fill="#000" opacity="1">64</text><text text-anchor="end" transform="translate(216.6270718232044,7) rotate(270) translate(0,3)" font-family="sans-serif" font-size="10px" fill="#000" opacity="0">65</text><text text-anchor="end" transform="translate(219.94198895027623,7) rotate(270) translate(0,3)" font-family="sans-serif" font-size="10px" fill="#000" opacity="0">66</text><text text-anchor="end" transform="translate(223.25690607734805,7) rotate(270) translate(0,3)" font-family="sans-serif" font-size="10px" fill="#000" opacity="0">67</text><text text-anchor="end" transform="translate(226.57182320441987,7) rotate(270) translate(0,3)" font-family="sans-serif" font-size="10px" fill="#000" opacity="1">68</text><text text-anchor="end" transform="translate(229.8867403314917,7) rotate(270) translate(0,3)" font-family="sans-serif" font-size="10px" fill="#000" opacity="0">69</text><text text-anchor="end" transform="translate(233.20165745856352,7) rotate(270) translate(0,3)" font-family="sans-serif" font-size="10px" fill="#000" opacity="0">70</text><text text-anchor="end" transform="translate(236.51657458563534,7) rotate(270) translate(0,3)" font-family="sans-serif" font-size="10px" fill="#000" opacity="0">71</text><text text-anchor="end" transform="translate(239.83149171270716,7) rotate(270) translate(0,3)" font-family="sans-serif" font-size="10px" fill="#000" opacity="1">72</text><text text-anchor="end" transform="translate(243.14640883977899,7) rotate(270) translate(0,3)" font-family="sans-serif" font-size="10px" fill="#000" opacity="0">73</text><text text-anchor="end" transform="translate(246.4613259668508,7) rotate(270) translate(0,3)" font-family="sans-serif" font-size="10px" fill="#000" opacity="0">74</text><text text-anchor="end" transform="translate(249.77624309392263,7) rotate(270) translate(0,3)" font-family="sans-serif" font-size="10px" fill="#000" opacity="0">75</text><text text-anchor="end" transform="translate(253.09116022099445,7) rotate(270) translate(0,3)" font-family="sans-serif" font-size="10px" fill="#000" opacity="1">76</text><text text-anchor="end" transform="translate(256.4060773480663,7) rotate(270) translate(0,3)" font-family="sans-serif" font-size="10px" fill="#000" opacity="0">77</text><text text-anchor="end" transform="translate(259.7209944751381,7) rotate(270) translate(0,3)" font-family="sans-serif" font-size="10px" fill="#000" opacity="0">78</text><text text-anchor="end" transform="translate(263.0359116022099,7) rotate(270) translate(0,3)" font-family="sans-serif" font-size="10px" fill="#000" opacity="0">79</text><text text-anchor="end" transform="translate(266.3508287292818,7) rotate(270) translate(0,3)" font-family="sans-serif" font-size="10px" fill="#000" opacity="1">80</text><text text-anchor="end" transform="translate(269.66574585635357,7) rotate(270) translate(0,3)" font-family="sans-serif" font-size="10px" fill="#000" opacity="0">81</text><text text-anchor="end" transform="translate(272.9806629834254,7) rotate(270) translate(0,3)" font-family="sans-serif" font-size="10px" fill="#000" opacity="0">82</text><text text-anchor="end" transform="translate(276.2955801104972,7) rotate(270) translate(0,3)" font-family="sans-serif" font-size="10px" fill="#000" opacity="0">83</text><text text-anchor="end" transform="translate(279.61049723756906,7) rotate(270) translate(0,3)" font-family="sans-serif" font-size="10px" fill="#000" opacity="1">84</text><text text-anchor="end" transform="translate(282.92541436464086,7) rotate(270) translate(0,3)" font-family="sans-serif" font-size="10px" fill="#000" opacity="0">85</text><text text-anchor="end" transform="translate(286.2403314917127,7) rotate(270) translate(0,3)" font-family="sans-serif" font-size="10px" fill="#000" opacity="0">86</text><text text-anchor="end" transform="translate(289.5552486187845,7) rotate(270) translate(0,3)" font-family="sans-serif" font-size="10px" fill="#000" opacity="0">87</text><text text-anchor="end" transform="translate(292.87016574585635,7) rotate(270) translate(0,3)" font-family="sans-serif" font-size="10px" fill="#000" opacity="1">88</text><text text-anchor="end" transform="translate(296.18508287292815,7) rotate(270) translate(0,3)" font-family="sans-serif" font-size="10px" fill="#000" opacity="0">89</text><text text-anchor="end" transform="translate(299.5,7) rotate(270) translate(0,3)" font-family="sans-serif" font-size="10px" fill="#000" opacity="0">90</text><text text-anchor="end" transform="translate(302.8149171270718,7) rotate(270) translate(0,3)" font-family="sans-serif" font-size="10px" fill="#000" opacity="0">91</text><text text-anchor="end" transform="translate(306.12983425414365,7) rotate(270) translate(0,3)" font-family="sans-serif" font-size="10px" fill="#000" opacity="1">92</text><text text-anchor="end" transform="translate(309.44475138121544,7) rotate(270) translate(0,3)" font-family="sans-serif" font-size="10px" fill="#000" opacity="0">93</text><text text-anchor="end" transform="translate(312.7596685082873,7) rotate(270) translate(0,3)" font-family="sans-serif" font-size="10px" fill="#000" opacity="0">94</text><text text-anchor="end" transform="translate(316.0745856353591,7) rotate(270) translate(0,3)" font-family="sans-serif" font-size="10px" fill="#000" opacity="0">95</text><text text-anchor="end" transform="translate(319.38950276243094,7) rotate(270) translate(0,3)" font-family="sans-serif" font-size="10px" fill="#000" opacity="1">96</text><text text-anchor="end" transform="translate(322.70441988950273,7) rotate(270) translate(0,3)" font-family="sans-serif" font-size="10px" fill="#000" opacity="0">97</text><text text-anchor="end" transform="translate(326.0193370165746,7) rotate(270) translate(0,3)" font-family="sans-serif" font-size="10px" fill="#000" opacity="0">98</text><text text-anchor="end" transform="translate(329.3342541436464,7) rotate(270) translate(0,3)" font-family="sans-serif" font-size="10px" fill="#000" opacity="0">99</text><text text-anchor="end" transform="translate(332.6491712707182,7) rotate(270) translate(0,3)" font-family="sans-serif" font-size="10px" fill="#000" opacity="1">100</text><text text-anchor="end" transform="translate(335.96408839779,7) rotate(270) translate(0,3)" font-family="sans-serif" font-size="10px" fill="#000" opacity="0">101</text><text text-anchor="end" transform="translate(339.2790055248619,7) rotate(270) translate(0,3)" font-family="sans-serif" font-size="10px" fill="#000" opacity="0">102</text><text text-anchor="end" transform="translate(342.59392265193367,7) rotate(270) translate(0,3)" font-family="sans-serif" font-size="10px" fill="#000" opacity="0">103</text><text text-anchor="end" transform="translate(345.9088397790055,7) rotate(270) translate(0,3)" font-family="sans-serif" font-size="10px" fill="#000" opacity="1">104</text><text text-anchor="end" transform="translate(349.2237569060773,7) rotate(270) translate(0,3)" font-family="sans-serif" font-size="10px" fill="#000" opacity="0">105</text><text text-anchor="end" transform="translate(352.53867403314916,7) rotate(270) translate(0,3)" font-family="sans-serif" font-size="10px" fill="#000" opacity="0">106</text><text text-anchor="end" transform="translate(355.85359116022096,7) rotate(270) translate(0,3)" font-family="sans-serif" font-size="10px" fill="#000" opacity="0">107</text><text text-anchor="end" transform="translate(359.1685082872928,7) rotate(270) translate(0,3)" font-family="sans-serif" font-size="10px" fill="#000" opacity="1">108</text><text text-anchor="end" transform="translate(362.4834254143646,7) rotate(270) translate(0,3)" font-family="sans-serif" font-size="10px" fill="#000" opacity="0">109</text><text text-anchor="end" transform="translate(365.79834254143645,7) rotate(270) translate(0,3)" font-family="sans-serif" font-size="10px" fill="#000" opacity="0">110</text><text text-anchor="end" transform="translate(369.11325966850825,7) rotate(270) translate(0,3)" font-family="sans-serif" font-size="10px" fill="#000" opacity="0">111</text><text text-anchor="end" transform="translate(372.4281767955801,7) rotate(270) translate(0,3)" font-family="sans-serif" font-size="10px" fill="#000" opacity="1">112</text><text text-anchor="end" transform="translate(375.7430939226519,7) rotate(270) translate(0,3)" font-family="sans-serif" font-size="10px" fill="#000" opacity="0">113</text><text text-anchor="end" transform="translate(379.05801104972375,7) rotate(270) translate(0,3)" font-family="sans-serif" font-size="10px" fill="#000" opacity="0">114</text><text text-anchor="end" transform="translate(382.37292817679554,7) rotate(270) translate(0,3)" font-family="sans-serif" font-size="10px" fill="#000" opacity="0">115</text><text text-anchor="end" transform="translate(385.6878453038674,7) rotate(270) translate(0,3)" font-family="sans-serif" font-size="10px" fill="#000" opacity="1">116</text><text text-anchor="end" transform="translate(389.0027624309392,7) rotate(270) translate(0,3)" font-family="sans-serif" font-size="10px" fill="#000" opacity="0">117</text><text text-anchor="end" transform="translate(392.31767955801104,7) rotate(270) translate(0,3)" font-family="sans-serif" font-size="10px" fill="#000" opacity="0">118</text><text text-anchor="end" transform="translate(395.63259668508283,7) rotate(270) translate(0,3)" font-family="sans-serif" font-size="10px" fill="#000" opacity="0">119</text><text text-anchor="end" transform="translate(398.9475138121547,7) rotate(270) translate(0,3)" font-family="sans-serif" font-size="10px" fill="#000" opacity="1">120</text><text text-anchor="end" transform="translate(402.2624309392265,7) rotate(270) translate(0,3)" font-family="sans-serif" font-size="10px" fill="#000" opacity="0">121</text><text text-anchor="end" transform="translate(405.5773480662983,7) rotate(270) translate(0,3)" font-family="sans-serif" font-size="10px" fill="#000" opacity="0">122</text><text text-anchor="end" transform="translate(408.8922651933701,7) rotate(270) translate(0,3)" font-family="sans-serif" font-size="10px" fill="#000" opacity="0">123</text><text text-anchor="end" transform="translate(412.207182320442,7) rotate(270) translate(0,3)" font-family="sans-serif" font-size="10px" fill="#000" opacity="1">124</text><text text-anchor="end" transform="translate(415.52209944751377,7) rotate(270) translate(0,3)" font-family="sans-serif" font-size="10px" fill="#000" opacity="0">125</text><text text-anchor="end" transform="translate(418.8370165745856,7) rotate(270) translate(0,3)" font-family="sans-serif" font-size="10px" fill="#000" opacity="0">126</text><text text-anchor="end" transform="translate(422.1519337016574,7) rotate(270) translate(0,3)" font-family="sans-serif" font-size="10px" fill="#000" opacity="0">127</text><text text-anchor="end" transform="translate(425.46685082872926,7) rotate(270) translate(0,3)" font-family="sans-serif" font-size="10px" fill="#000" opacity="1">128</text><text text-anchor="end" transform="translate(428.7817679558011,7) rotate(270) translate(0,3)" font-family="sans-serif" font-size="10px" fill="#000" opacity="0">129</text><text text-anchor="end" transform="translate(432.0966850828729,7) rotate(270) translate(0,3)" font-family="sans-serif" font-size="10px" fill="#000" opacity="0">130</text><text text-anchor="end" transform="translate(435.41160220994476,7) rotate(270) translate(0,3)" font-family="sans-serif" font-size="10px" fill="#000" opacity="0">131</text><text text-anchor="end" transform="translate(438.72651933701655,7) rotate(270) translate(0,3)" font-family="sans-serif" font-size="10px" fill="#000" opacity="1">132</text><text text-anchor="end" transform="translate(442.0414364640884,7) rotate(270) translate(0,3)" font-family="sans-serif" font-size="10px" fill="#000" opacity="0">133</text><text text-anchor="end" transform="translate(445.3563535911602,7) rotate(270) translate(0,3)" font-family="sans-serif" font-size="10px" fill="#000" opacity="0">134</text><text text-anchor="end" transform="translate(448.67127071823205,7) rotate(270) translate(0,3)" font-family="sans-serif" font-size="10px" fill="#000" opacity="0">135</text><text text-anchor="end" transform="translate(451.98618784530385,7) rotate(270) translate(0,3)" font-family="sans-serif" font-size="10px" fill="#000" opacity="1">136</text><text text-anchor="end" transform="translate(455.3011049723757,7) rotate(270) translate(0,3)" font-family="sans-serif" font-size="10px" fill="#000" opacity="0">137</text><text text-anchor="end" transform="translate(458.6160220994475,7) rotate(270) translate(0,3)" font-family="sans-serif" font-size="10px" fill="#000" opacity="0">138</text><text text-anchor="end" transform="translate(461.93093922651934,7) rotate(270) translate(0,3)" font-family="sans-serif" font-size="10px" fill="#000" opacity="0">139</text><text text-anchor="end" transform="translate(465.24585635359114,7) rotate(270) translate(0,3)" font-family="sans-serif" font-size="10px" fill="#000" opacity="1">140</text><text text-anchor="end" transform="translate(468.560773480663,7) rotate(270) translate(0,3)" font-family="sans-serif" font-size="10px" fill="#000" opacity="0">141</text><text text-anchor="end" transform="translate(471.8756906077348,7) rotate(270) translate(0,3)" font-family="sans-serif" font-size="10px" fill="#000" opacity="0">142</text><text text-anchor="end" transform="translate(475.19060773480663,7) rotate(270) translate(0,3)" font-family="sans-serif" font-size="10px" fill="#000" opacity="0">143</text><text text-anchor="end" transform="translate(478.5055248618784,7) rotate(270) translate(0,3)" font-family="sans-serif" font-size="10px" fill="#000" opacity="1">144</text><text text-anchor="end" transform="translate(481.8204419889503,7) rotate(270) translate(0,3)" font-family="sans-serif" font-size="10px" fill="#000" opacity="0">145</text><text text-anchor="end" transform="translate(485.1353591160221,7) rotate(270) translate(0,3)" font-family="sans-serif" font-size="10px" fill="#000" opacity="0">146</text><text text-anchor="end" transform="translate(488.4502762430939,7) rotate(270) translate(0,3)" font-family="sans-serif" font-size="10px" fill="#000" opacity="0">147</text><text text-anchor="end" transform="translate(491.7651933701657,7) rotate(270) translate(0,3)" font-family="sans-serif" font-size="10px" fill="#000" opacity="1">148</text><text text-anchor="end" transform="translate(495.08011049723757,7) rotate(270) translate(0,3)" font-family="sans-serif" font-size="10px" fill="#000" opacity="0">149</text><text text-anchor="end" transform="translate(498.39502762430936,7) rotate(270) translate(0,3)" font-family="sans-serif" font-size="10px" fill="#000" opacity="0">150</text><text text-anchor="end" transform="translate(501.7099447513812,7) rotate(270) translate(0,3)" font-family="sans-serif" font-size="10px" fill="#000" opacity="0">151</text><text text-anchor="end" transform="translate(505.024861878453,7) rotate(270) translate(0,3)" font-family="sans-serif" font-size="10px" fill="#000" opacity="1">152</text><text text-anchor="end" transform="translate(508.33977900552486,7) rotate(270) translate(0,3)" font-family="sans-serif" font-size="10px" fill="#000" opacity="0">153</text><text text-anchor="end" transform="translate(511.65469613259665,7) rotate(270) translate(0,3)" font-family="sans-serif" font-size="10px" fill="#000" opacity="0">154</text><text text-anchor="end" transform="translate(514.9696132596683,7) rotate(270) translate(0,3)" font-family="sans-serif" font-size="10px" fill="#000" opacity="0">155</text><text text-anchor="end" transform="translate(518.2845303867404,7) rotate(270) translate(0,3)" font-family="sans-serif" font-size="10px" fill="#000" opacity="1">156</text><text text-anchor="end" transform="translate(521.5994475138122,7) rotate(270) translate(0,3)" font-family="sans-serif" font-size="10px" fill="#000" opacity="0">157</text><text text-anchor="end" transform="translate(524.914364640884,7) rotate(270) translate(0,3)" font-family="sans-serif" font-size="10px" fill="#000" opacity="0">158</text><text text-anchor="end" transform="translate(528.2292817679557,7) rotate(270) translate(0,3)" font-family="sans-serif" font-size="10px" fill="#000" opacity="0">159</text><text text-anchor="end" transform="translate(531.5441988950275,7) rotate(270) translate(0,3)" font-family="sans-serif" font-size="10px" fill="#000" opacity="1">160</text><text text-anchor="end" transform="translate(534.8591160220993,7) rotate(270) translate(0,3)" font-family="sans-serif" font-size="10px" fill="#000" opacity="0">161</text><text text-anchor="end" transform="translate(538.1740331491711,7) rotate(270) translate(0,3)" font-family="sans-serif" font-size="10px" fill="#000" opacity="0">162</text><text text-anchor="end" transform="translate(541.4889502762429,7) rotate(270) translate(0,3)" font-family="sans-serif" font-size="10px" fill="#000" opacity="0">163</text><text text-anchor="end" transform="translate(544.8038674033149,7) rotate(270) translate(0,3)" font-family="sans-serif" font-size="10px" fill="#000" opacity="1">164</text><text text-anchor="end" transform="translate(548.1187845303867,7) rotate(270) translate(0,3)" font-family="sans-serif" font-size="10px" fill="#000" opacity="0">165</text><text text-anchor="end" transform="translate(551.4337016574585,7) rotate(270) translate(0,3)" font-family="sans-serif" font-size="10px" fill="#000" opacity="0">166</text><text text-anchor="end" transform="translate(554.7486187845303,7) rotate(270) translate(0,3)" font-family="sans-serif" font-size="10px" fill="#000" opacity="0">167</text><text text-anchor="end" transform="translate(558.0635359116021,7) rotate(270) translate(0,3)" font-family="sans-serif" font-size="10px" fill="#000" opacity="1">168</text><text text-anchor="end" transform="translate(561.3784530386739,7) rotate(270) translate(0,3)" font-family="sans-serif" font-size="10px" fill="#000" opacity="0">169</text><text text-anchor="end" transform="translate(564.6933701657457,7) rotate(270) translate(0,3)" font-family="sans-serif" font-size="10px" fill="#000" opacity="0">170</text><text text-anchor="end" transform="translate(568.0082872928175,7) rotate(270) translate(0,3)" font-family="sans-serif" font-size="10px" fill="#000" opacity="0">171</text><text text-anchor="end" transform="translate(571.3232044198895,7) rotate(270) translate(0,3)" font-family="sans-serif" font-size="10px" fill="#000" opacity="1">172</text><text text-anchor="end" transform="translate(574.6381215469613,7) rotate(270) translate(0,3)" font-family="sans-serif" font-size="10px" fill="#000" opacity="0">173</text><text text-anchor="end" transform="translate(577.9530386740331,7) rotate(270) translate(0,3)" font-family="sans-serif" font-size="10px" fill="#000" opacity="0">174</text><text text-anchor="end" transform="translate(581.2679558011049,7) rotate(270) translate(0,3)" font-family="sans-serif" font-size="10px" fill="#000" opacity="0">175</text><text text-anchor="end" transform="translate(584.5828729281767,7) rotate(270) translate(0,3)" font-family="sans-serif" font-size="10px" fill="#000" opacity="1">176</text><text text-anchor="end" transform="translate(587.8977900552485,7) rotate(270) translate(0,3)" font-family="sans-serif" font-size="10px" fill="#000" opacity="0">177</text><text text-anchor="end" transform="translate(591.2127071823203,7) rotate(270) translate(0,3)" font-family="sans-serif" font-size="10px" fill="#000" opacity="0">178</text><text text-anchor="end" transform="translate(594.5276243093921,7) rotate(270) translate(0,3)" font-family="sans-serif" font-size="10px" fill="#000" opacity="0">179</text><text text-anchor="end" transform="translate(597.8425414364641,7) rotate(270) translate(0,3)" font-family="sans-serif" font-size="10px" fill="#000" opacity="1">180</text></g><g class="mark-rule role-axis-domain" pointer-events="none"><line transform="translate(0,0)" x2="600" y2="0" stroke="#888" stroke-width="1" opacity="1"/></g><g class="mark-text role-axis-title" pointer-events="none"><text text-anchor="middle" transform="translate(300,36.70000076293951)" font-family="sans-serif" font-size="11px" font-weight="bold" fill="#000" opacity="1"><tspan>Rank</tspan><tspan x="0" dy="13">(based on selection method)</tspan></text></g></g><path class="foreground" aria-hidden="true" d="" pointer-events="none" display="none"/></g></g><g class="mark-group role-axis" role="graphics-symbol" aria-roledescription="axis" aria-label="Y-axis for a linear scale with values from −8 to 14"><g transform="translate(0.5,0.5)"><path class="background" aria-hidden="true" d="M0,0h0v0h0Z" pointer-events="none"/><g><g class="mark-rule role-axis-tick" pointer-events="none"><line transform="translate(0,500)" x2="-5" y2="0" stroke="#888" stroke-width="1" opacity="1"/><line transform="translate(0,455)" x2="-5" y2="0" stroke="#888" stroke-width="1" opacity="1"/><line transform="translate(0,409)" x2="-5" y2="0" stroke="#888" stroke-width="1" opacity="1"/><line transform="translate(0,364)" x2="-5" y2="0" stroke="#888" stroke-width="1" opacity="1"/><line transform="translate(0,318)" x2="-5" y2="0" stroke="#888" stroke-width="1" opacity="1"/><line transform="translate(0,273)" x2="-5" y2="0" stroke="#888" stroke-width="1" opacity="1"/><line transform="translate(0,227)" x2="-5" y2="0" stroke="#888" stroke-width="1" opacity="1"/><line transform="translate(0,182)" x2="-5" y2="0" stroke="#888" stroke-width="1" opacity="1"/><line transform="translate(0,136)" x2="-5" y2="0" stroke="#888" stroke-width="1" opacity="1"/><line transform="translate(0,91)" x2="-5" y2="0" stroke="#888" stroke-width="1" opacity="1"/><line transform="translate(0,45)" x2="-5" y2="0" stroke="#888" stroke-width="1" opacity="1"/><line transform="translate(0,0)" x2="-5" y2="0" stroke="#888" stroke-width="1" opacity="1"/></g><g class="mark-text role-axis-label" pointer-events="none"><text text-anchor="end" transform="translate(-7,503)" font-family="sans-serif" font-size="10px" fill="#000" opacity="1">−8</text><text text-anchor="end" transform="translate(-7,457.5454545454545)" font-family="sans-serif" font-size="10px" fill="#000" opacity="1">−6</text><text text-anchor="end" transform="translate(-7,412.09090909090907)" font-family="sans-serif" font-size="10px" fill="#000" opacity="1">−4</text><text text-anchor="end" transform="translate(-7,366.6363636363636)" font-family="sans-serif" font-size="10px" fill="#000" opacity="1">−2</text><text text-anchor="end" transform="translate(-7,321.1818181818182)" font-family="sans-serif" font-size="10px" fill="#000" opacity="1">0</text><text text-anchor="end" transform="translate(-7,275.7272727272727)" font-family="sans-serif" font-size="10px" fill="#000" opacity="1">2</text><text text-anchor="end" transform="translate(-7,230.27272727272728)" font-family="sans-serif" font-size="10px" fill="#000" opacity="1">4</text><text text-anchor="end" transform="translate(-7,184.8181818181818)" font-family="sans-serif" font-size="10px" fill="#000" opacity="1">6</text><text text-anchor="end" transform="translate(-7,139.36363636363635)" font-family="sans-serif" font-size="10px" fill="#000" opacity="1">8</text><text text-anchor="end" transform="translate(-7,93.90909090909088)" font-family="sans-serif" font-size="10px" fill="#000" opacity="1">10</text><text text-anchor="end" transform="translate(-7,48.45454545454547)" font-family="sans-serif" font-size="10px" fill="#000" opacity="1">12</text><text text-anchor="end" transform="translate(-7,3)" font-family="sans-serif" font-size="10px" fill="#000" opacity="1">14</text></g><g class="mark-rule role-axis-domain" pointer-events="none"><line transform="translate(0,500)" x2="0" y2="-500" stroke="#888" stroke-width="1" opacity="1"/></g></g><path class="foreground" aria-hidden="true" d="" pointer-events="none" display="none"/></g></g><g class="mark-rect role-mark concat_1_layer_0_marks" role="graphics-symbol" aria-roledescription="rect mark container"><path d="M0.16574585635356698,318.1818181818182h2.983425414364641v0h-2.983425414364641Z" fill="#4c78a8"/><path d="M3.48066298342539,318.1818181818182h2.983425414364641v129.26413966749232h-2.983425414364641Z" fill="#f58518"/><path d="M6.795580110497213,318.1818181818182h2.983425414364641v129.26413966749232h-2.983425414364641Z" fill="#f58518"/><path d="M10.110497237569037,318.1818181818182h2.983425414364641v129.26413966749232h-2.983425414364641Z" fill="#f58518"/><path d="M13.42541436464086,318.1818181818182h2.983425414364641v0h-2.983425414364641Z" fill="#4c78a8"/><path d="M16.740331491712684,256.05035925800166h2.983425414364641v62.131458923816524h-2.983425414364641Z" fill="#4c78a8"/><path d="M20.055248618784507,195.80923975224235h2.983425414364641v122.37257842957584h-2.983425414364641Z" fill="#4c78a8"/><path d="M23.37016574585633,126.49328927441067h2.983425414364641v191.68852890740752h-2.983425414364641Z" fill="#4c78a8"/><path d="M26.685082872928152,98.90676453163077h2.983425414364641v219.27505365018743h-2.983425414364641Z" fill="#4c78a8"/><path d="M29.999999999999975,64.36633697084166h2.983425414364641v253.81548121097654h-2.983425414364641Z" fill="#4c78a8"/><path d="M33.3149171270718,30.7194407620765h2.983425414364641v287.4623774197417h-2.983425414364641Z" fill="#4c78a8"/><path d="M36.629834254143624,23.703571915661968h2.983425414364641v294.47824626615625h-2.983425414364641Z" fill="#4c78a8"/><path d="M39.94475138121545,24.275912687116875h2.983425414364641v293.9059054947013h-2.983425414364641Z" fill="#4c78a8"/><path d="M43.25966850828727,31.918765075489798h2.983425414364641v286.2630531063284h-2.983425414364641Z" fill="#4c78a8"/><path d="M46.57458563535909,72.17922038564257h2.983425414364641v246.00259779617562h-2.983425414364641Z" fill="#4c78a8"/><path d="M49.889502762430915,74.7471489355222h2.983425414364641v243.43466924629598h-2.983425414364641Z" fill="#4c78a8"/><path d="M53.20441988950274,42.29938926432625h2.983425414364641v275.88242891749195h-2.983425414364641Z" fill="#4c78a8"/><path d="M56.51933701657456,66.98693664486588h2.983425414364641v251.19488153695232h-2.983425414364641Z" fill="#4c78a8"/><path d="M59.83425414364638,71.17706070806534h2.983425414364641v247.00475747375285h-2.983425414364641Z" fill="#4c78a8"/><path d="M63.149171270718206,69.41562940667639h2.983425414364641v248.7661887751418h-2.983425414364641Z" fill="#4c78a8"/><path d="M66.46408839779004,99.94131554223812h2.983425414364641v218.2405026395801h-2.983425414364641Z" fill="#4c78a8"/><path d="M69.77900552486186,93.72771898783161h2.983425414364641v224.45409919398656h-2.983425414364641Z" fill="#4c78a8"/><path d="M73.09392265193368,143.9353179517478h2.983425414364641v174.24650023007038h-2.983425414364641Z" fill="#4c78a8"/><path d="M76.4088397790055,164.8789905615299h2.983425414364641v153.3028276202883h-2.983425414364641Z" fill="#4c78a8"/><path d="M79.72375690607733,190.73112372440676h2.983425414364641v127.45069445741143h-2.983425414364641Z" fill="#4c78a8"/><path d="M83.03867403314915,200.95964947988404h2.983425414364641v117.22216870193415h-2.983425414364641Z" fill="#4c78a8"/><path d="M86.35359116022097,245.13325948384818h2.983425414364641v73.04855869797001h-2.983425414364641Z" fill="#4c78a8"/><path d="M89.6685082872928,220.3323893816636h2.983425414364641v97.84942880015458h-2.983425414364641Z" fill="#4c78a8"/><path d="M92.98342541436462,220.1038661799376h2.983425414364641v98.07795200188059h-2.983425414364641Z" fill="#4c78a8"/><path d="M96.29834254143644,218.883698747879h2.983425414364641v99.29811943393918h-2.983425414364641Z" fill="#4c78a8"/><path d="M99.61325966850826,216.19371589962506h2.983425414364641v101.98810228219313h-2.983425414364641Z" fill="#4c78a8"/><path d="M102.92817679558009,206.27999634603228h2.983425414364641v111.90182183578591h-2.983425414364641Z" fill="#4c78a8"/><path d="M106.24309392265191,214.90322641411856h2.983425414364641v103.27859176769962h-2.983425414364641Z" fill="#4c78a8"/><path d="M109.55801104972373,226.69001000815192h2.983425414364641v91.49180817366627h-2.983425414364641Z" fill="#4c78a8"/><path d="M112.87292817679555,268.4334250435561h2.983425414364641v49.74839313826209h-2.983425414364641Z" fill="#4c78a8"/><path d="M116.18784530386738,270.5378289233776h2.983425414364641v47.64398925844057h-2.983425414364641Z" fill="#4c78a8"/><path d="M119.5027624309392,268.9148823066829h2.983425414364641v49.26693587513529h-2.983425414364641Z" fill="#4c78a8"/><path d="M122.81767955801102,264.3986854909797h2.983425414364641v53.7831326908385h-2.983425414364641Z" fill="#4c78a8"/><path d="M126.13259668508285,260.10772579973826h2.983425414364641v58.074092382079925h-2.983425414364641Z" fill="#4c78a8"/><path d="M129.44751381215468,259.5147296854815h2.983425414364641v58.6670884963367h-2.983425414364641Z" fill="#4c78a8"/><path d="M132.7624309392265,252.17795192226333h2.983425414364641v66.00386625955485h-2.983425414364641Z" fill="#4c78a8"/><path d="M136.07734806629833,252.95449892369138h2.983425414364641v65.22731925812681h-2.983425414364641Z" fill="#4c78a8"/><path d="M139.39226519337015,257.6413839812757h2.983425414364641v60.54043420054251h-2.983425414364641Z" fill="#4c78a8"/><path d="M142.70718232044197,237.25615673051774h2.983425414364641v80.92566145130044h-2.983425414364641Z" fill="#4c78a8"/><path d="M146.0220994475138,237.25549951506525h2.983425414364641v80.92631866675293h-2.983425414364641Z" fill="#4c78a8"/><path d="M149.33701657458562,233.0465978675003h2.983425414364641v85.13522031431788h-2.983425414364641Z" fill="#4c78a8"/><path d="M152.65193370165744,233.4665585418308h2.983425414364641v84.71525963998738h-2.983425414364641Z" fill="#4c78a8"/><path d="M155.96685082872926,239.3184988213612h2.983425414364641v78.86331936045698h-2.983425414364641Z" fill="#4c78a8"/><path d="M159.2817679558011,225.52063594180143h2.983425414364641v92.66118224001676h-2.983425414364641Z" fill="#4c78a8"/><path d="M162.5966850828729,224.35370296141883h2.983425414364641v93.82811522039935h-2.983425414364641Z" fill="#4c78a8"/><path d="M165.91160220994473,262.8024030440838h2.983425414364641v55.379415137734384h-2.983425414364641Z" fill="#4c78a8"/><path d="M169.22651933701655,262.9802267680232h2.983425414364641v55.20159141379497h-2.983425414364641Z" fill="#4c78a8"/><path d="M172.54143646408838,260.68325876053564h2.983425414364641v57.49855942128255h-2.983425414364641Z" fill="#4c78a8"/><path d="M175.8563535911602,272.1899746837603h2.983425414364641v45.991843498057904h-2.983425414364641Z" fill="#4c78a8"/><path d="M179.17127071823202,271.586369234337h2.983425414364641v46.5954489474812h-2.983425414364641Z" fill="#4c78a8"/><path d="M182.48618784530385,272.4380265732261h2.983425414364641v45.74379160859206h-2.983425414364641Z" fill="#4c78a8"/><path d="M185.80110497237567,275.0567484888138h2.983425414364641v43.12506969300438h-2.983425414364641Z" fill="#4c78a8"/><path d="M189.1160220994475,279.9710300930618h2.983425414364641v38.210788088756374h-2.983425414364641Z" fill="#4c78a8"/><path d="M192.4309392265193,280.1615286864479h2.983425414364641v38.020289495370264h-2.983425414364641Z" fill="#4c78a8"/><path d="M195.74585635359114,318.1818181818182h2.983425414364641v18.668674376001547h-2.983425414364641Z" fill="#f58518"/><path d="M199.06077348066296,318.1818181818182h2.983425414364641v17.55553917482547h-2.983425414364641Z" fill="#f58518"/><path d="M202.37569060773478,318.1818181818182h2.983425414364641v19.949681181403776h-2.983425414364641Z" fill="#f58518"/><path d="M205.6906077348066,318.1818181818182h2.983425414364641v24.32138448541599h-2.983425414364641Z" fill="#f58518"/><path d="M209.00552486187843,318.1818181818182h2.983425414364641v25.32448304221134h-2.983425414364641Z" fill="#f58518"/><path d="M212.32044198895025,318.1818181818182h2.983425414364641v25.214164734065264h-2.983425414364641Z" fill="#f58518"/><path d="M215.63535911602207,318.1818181818182h2.983425414364641v25.998128881317314h-2.983425414364641Z" fill="#f58518"/><path d="M218.9502762430939,318.1818181818182h2.983425414364641v24.77214039810565h-2.983425414364641Z" fill="#f58518"/><path d="M222.26519337016572,318.1818181818182h2.983425414364641v18.27425121640806h-2.983425414364641Z" fill="#f58518"/><path d="M225.58011049723754,318.1818181818182h2.983425414364641v13.799552862152211h-2.983425414364641Z" fill="#f58518"/><path d="M228.89502762430936,318.1818181818182h2.983425414364641v12.219137474044942h-2.983425414364641Z" fill="#f58518"/><path d="M232.2099447513812,318.1818181818182h2.983425414364641v9.684633024335938h-2.983425414364641Z" fill="#f58518"/><path d="M235.524861878453,318.1818181818182h2.983425414364641v0.6962728282661601h-2.983425414364641Z" fill="#f58518"/><path d="M238.83977900552483,317.6827099893882h2.983425414364641v0.4991081924300147h-2.983425414364641Z" fill="#4c78a8"/><path d="M242.15469613259665,316.24237538064614h2.983425414364641v1.9394428011720493h-2.983425414364641Z" fill="#4c78a8"/><path d="M245.46961325966848,316.0262453846013h2.983425414364641v2.155572797216905h-2.983425414364641Z" fill="#4c78a8"/><path d="M248.7845303867403,315.27129260519365h2.983425414364641v2.9105255766245364h-2.983425414364641Z" fill="#4c78a8"/><path d="M252.09944751381212,317.17571521152416h2.983425414364641v1.0061029702940232h-2.983425414364641Z" fill="#4c78a8"/><path d="M255.41436464088395,316.6992340082541h2.983425414364641v1.482584173564078h-2.983425414364641Z" fill="#4c78a8"/><path d="M258.7292817679558,317.4915541805488h2.983425414364641v0.6902640012693837h-2.983425414364641Z" fill="#4c78a8"/><path d="M262.0441988950276,318.1818181818182h2.983425414364641v25.833449466433308h-2.983425414364641Z" fill="#f58518"/><path d="M265.35911602209944,318.1818181818182h2.983425414364641v24.625487464212483h-2.983425414364641Z" fill="#f58518"/><path d="M268.67403314917124,318.1818181818182h2.983425414364641v21.245991718063692h-2.983425414364641Z" fill="#f58518"/><path d="M271.9889502762431,318.1818181818182h2.983425414364641v15.326733798583632h-2.983425414364641Z" fill="#f58518"/><path d="M275.3038674033149,318.1818181818182h2.983425414364641v5.108347938663599h-2.983425414364641Z" fill="#f58518"/><path d="M278.61878453038673,318.1818181818182h2.983425414364641v5.467281463806842h-2.983425414364641Z" fill="#f58518"/><path d="M281.9337016574585,318.1818181818182h2.983425414364641v12.999439992346026h-2.983425414364641Z" fill="#f58518"/><path d="M285.2486187845304,318.1818181818182h2.983425414364641v12.794858210685902h-2.983425414364641Z" fill="#f58518"/><path d="M288.5635359116022,318.1818181818182h2.983425414364641v12.111072476022741h-2.983425414364641Z" fill="#f58518"/><path d="M291.878453038674,318.1818181818182h2.983425414364641v14.85025259531352h-2.983425414364641Z" fill="#f58518"/><path d="M295.1933701657458,292.4350272672307h2.983425414364641v25.746790914587507h-2.983425414364641Z" fill="#4c78a8"/><path d="M298.50828729281767,294.6855207534143h2.983425414364641v23.496297428403864h-2.983425414364641Z" fill="#4c78a8"/><path d="M301.82320441988946,293.6811077657133h2.983425414364641v24.50071041610488h-2.983425414364641Z" fill="#4c78a8"/><path d="M305.1381215469613,293.9077532090028h2.983425414364641v24.27406497281538h-2.983425414364641Z" fill="#4c78a8"/><path d="M308.4530386740331,293.38845911337984h2.983425414364641v24.79335906843835h-2.983425414364641Z" fill="#4c78a8"/><path d="M311.76795580110496,292.79968795560524h2.983425414364641v25.38213022621295h-2.983425414364641Z" fill="#4c78a8"/><path d="M315.08287292817676,291.6784783931521h2.983425414364641v26.503339788666096h-2.983425414364641Z" fill="#4c78a8"/><path d="M318.3977900552486,292.41521691572524h2.983425414364641v25.766601266092948h-2.983425414364641Z" fill="#4c78a8"/><path d="M321.7127071823204,294.0302769469866h2.983425414364641v24.151541234831598h-2.983425414364641Z" fill="#4c78a8"/><path d="M325.02762430939225,293.3478056432288h2.983425414364641v24.834012538589377h-2.983425414364641Z" fill="#4c78a8"/><path d="M328.34254143646405,291.0956221744525h2.983425414364641v27.086196007365686h-2.983425414364641Z" fill="#4c78a8"/><path d="M331.6574585635359,294.6982895107827h2.983425414364641v23.483528671035515h-2.983425414364641Z" fill="#4c78a8"/><path d="M334.9723756906077,280.15298488556175h2.983425414364641v38.02883329625644h-2.983425414364641Z" fill="#4c78a8"/><path d="M338.28729281767954,281.06482438234184h2.983425414364641v37.11699379947635h-2.983425414364641Z" fill="#4c78a8"/><path d="M341.60220994475134,280.8875639859332h2.983425414364641v37.294254195885h-2.983425414364641Z" fill="#4c78a8"/><path d="M344.9171270718232,280.7311467081699h2.983425414364641v37.4506714736483h-2.983425414364641Z" fill="#4c78a8"/><path d="M348.232044198895,284.42685697503066h2.983425414364641v33.75496120678753h-2.983425414364641Z" fill="#4c78a8"/><path d="M351.54696132596683,284.39099178889285h2.983425414364641v33.79082639292534h-2.983425414364641Z" fill="#4c78a8"/><path d="M354.8618784530386,283.52252851199665h2.983425414364641v34.65928966982153h-2.983425414364641Z" fill="#4c78a8"/><path d="M358.1767955801105,266.3968082432937h2.983425414364641v51.78500993852447h-2.983425414364641Z" fill="#4c78a8"/><path d="M361.4917127071823,267.3146565670702h2.983425414364641v50.867161614748h-2.983425414364641Z" fill="#4c78a8"/><path d="M364.8066298342541,267.1563615308705h2.983425414364641v51.02545665094766h-2.983425414364641Z" fill="#4c78a8"/><path d="M368.1215469613259,265.6082435878718h2.983425414364641v52.573574593946375h-2.983425414364641Z" fill="#4c78a8"/><path d="M371.43646408839777,265.88671516400956h2.983425414364641v52.29510301780863h-2.983425414364641Z" fill="#4c78a8"/><path d="M374.75138121546956,266.97346785915244h2.983425414364641v51.20835032266575h-2.983425414364641Z" fill="#4c78a8"/><path d="M378.0662983425414,267.1243457495278h2.983425414364641v51.05747243229041h-2.983425414364641Z" fill="#4c78a8"/><path d="M381.3812154696132,267.8869973385252h2.983425414364641v50.294820843292996h-2.983425414364641Z" fill="#4c78a8"/><path d="M384.69613259668506,265.8973244991759h2.983425414364641v52.28449368264228h-2.983425414364641Z" fill="#4c78a8"/><path d="M388.01104972375686,265.7717024597721h2.983425414364641v52.4101157220461h-2.983425414364641Z" fill="#4c78a8"/><path d="M391.3259668508287,267.0150602085216h2.983425414364641v51.16675797329657h-2.983425414364641Z" fill="#4c78a8"/><path d="M394.6408839779005,261.09674116825977h2.983425414364641v57.08507701355842h-2.983425414364641Z" fill="#4c78a8"/><path d="M397.95580110497235,262.89206600942816h2.983425414364641v55.289752172390024h-2.983425414364641Z" fill="#4c78a8"/><path d="M401.27071823204415,280.8909439511191h2.983425414364641v37.2908742306991h-2.983425414364641Z" fill="#4c78a8"/><path d="M404.585635359116,276.0043592838095h2.983425414364641v42.177458898008695h-2.983425414364641Z" fill="#4c78a8"/><path d="M407.9005524861878,280.42291266081344h2.983425414364641v37.75890552100475h-2.983425414364641Z" fill="#4c78a8"/><path d="M411.21546961325964,277.84127647434707h2.983425414364641v40.34054170747112h-2.983425414364641Z" fill="#4c78a8"/><path d="M414.53038674033144,279.19805083266334h2.983425414364641v38.983767349154846h-2.983425414364641Z" fill="#4c78a8"/><path d="M417.8453038674033,278.90042612047296h2.983425414364641v39.28139206134523h-2.983425414364641Z" fill="#4c78a8"/><path d="M421.1602209944751,278.5619601622882h2.983425414364641v39.61985801953h-2.983425414364641Z" fill="#4c78a8"/><path d="M424.47513812154693,289.642049368733h2.983425414364641v28.539768813085175h-2.983425414364641Z" fill="#4c78a8"/><path d="M427.7900552486188,290.20274803788135h2.983425414364641v27.979070143936838h-2.983425414364641Z" fill="#4c78a8"/><path d="M431.1049723756906,287.00173323112523h2.983425414364641v31.180084950692958h-2.983425414364641Z" fill="#4c78a8"/><path d="M434.41988950276243,285.68598789464704h2.983425414364641v32.495830287171145h-2.983425414364641Z" fill="#4c78a8"/><path d="M437.7348066298342,281.1683827601166h2.983425414364641v37.013435421701615h-2.983425414364641Z" fill="#4c78a8"/><path d="M441.0497237569061,285.1914802103863h2.983425414364641v32.99033797143187h-2.983425414364641Z" fill="#4c78a8"/><path d="M444.36464088397787,292.72551649736226h2.983425414364641v25.456301684455923h-2.983425414364641Z" fill="#4c78a8"/><path d="M447.6795580110497,292.5936039671959h2.983425414364641v25.58821421462227h-2.983425414364641Z" fill="#4c78a8"/><path d="M450.9944751381215,292.8807132321416h2.983425414364641v25.301104949676585h-2.983425414364641Z" fill="#4c78a8"/><path d="M454.30939226519337,298.6970699892997h2.983425414364641v19.48474819251851h-2.983425414364641Z" fill="#4c78a8"/><path d="M457.62430939226516,298.39681641529836h2.983425414364641v19.785001766519827h-2.983425414364641Z" fill="#4c78a8"/><path d="M460.939226519337,297.90690923920704h2.983425414364641v20.274908942611148h-2.983425414364641Z" fill="#4c78a8"/><path d="M464.2541436464088,301.38874282014626h2.983425414364641v16.793075361671924h-2.983425414364641Z" fill="#4c78a8"/><path d="M467.56906077348066,302.93188470328846h2.983425414364641v15.249933478529726h-2.983425414364641Z" fill="#4c78a8"/><path d="M470.88397790055245,301.9140457427662h2.983425414364641v16.26777243905201h-2.983425414364641Z" fill="#4c78a8"/><path d="M474.1988950276243,312.86241019488835h2.983425414364641v5.319407986929832h-2.983425414364641Z" fill="#4c78a8"/><path d="M477.5138121546961,313.20425611825914h2.983425414364641v4.9775620635590485h-2.983425414364641Z" fill="#4c78a8"/><path d="M480.82872928176795,316.6353902214123h2.983425414364641v1.5464279604058788h-2.983425414364641Z" fill="#4c78a8"/><path d="M484.14364640883974,318.1818181818182h2.983425414364641v2.6765568754329365h-2.983425414364641Z" fill="#f58518"/><path d="M487.4585635359116,318.1818181818182h2.983425414364641v3.0405603483545747h-2.983425414364641Z" fill="#f58518"/><path d="M490.7734806629834,318.1818181818182h2.983425414364641v3.039152029527145h-2.983425414364641Z" fill="#f58518"/><path d="M494.08839779005524,318.1818181818182h2.983425414364641v3.361938704766999h-2.983425414364641Z" fill="#f58518"/><path d="M497.40331491712703,318.1818181818182h2.983425414364641v2.563046377944488h-2.983425414364641Z" fill="#f58518"/><path d="M500.7182320441989,318.1818181818182h2.983425414364641v2.589710547743209h-2.983425414364641Z" fill="#f58518"/><path d="M504.0331491712707,318.1818181818182h2.983425414364641v2.4762000502547608h-2.983425414364641Z" fill="#f58518"/><path d="M507.34806629834253,318.1818181818182h2.983425414364641v2.132945808056604h-2.983425414364641Z" fill="#f58518"/><path d="M510.6629834254143,318.1818181818182h2.983425414364641v8.62726724872482h-2.983425414364641Z" fill="#f58518"/><path d="M513.9779005524861,318.1818181818182h2.983425414364641v8.133698443682192h-2.983425414364641Z" fill="#f58518"/><path d="M517.2928176795581,318.1818181818182h2.983425414364641v8.07238963072956h-2.983425414364641Z" fill="#f58518"/><path d="M520.6077348066299,318.1818181818182h2.983425414364641v6.564267942428614h-2.983425414364641Z" fill="#f58518"/><path d="M523.9226519337017,318.1818181818182h2.983425414364641v6.334148646031792h-2.983425414364641Z" fill="#f58518"/><path d="M527.2375690607735,318.1818181818182h2.983425414364641v6.368699401263825h-2.983425414364641Z" fill="#f58518"/><path d="M530.5524861878453,318.1818181818182h2.983425414364641v6.44099310107066h-2.983425414364641Z" fill="#f58518"/><path d="M533.867403314917,318.1818181818182h2.983425414364641v6.316873268415748h-2.983425414364641Z" fill="#f58518"/><path d="M537.1823204419888,318.1818181818182h2.983425414364641v6.357151186879321h-2.983425414364641Z" fill="#f58518"/><path d="M540.4972375690606,318.1818181818182h2.983425414364641v2.481363885955261h-2.983425414364641Z" fill="#f58518"/><path d="M543.8121546961327,318.1818181818182h2.983425414364641v3.6916730862221243h-2.983425414364641Z" fill="#f58518"/><path d="M547.1270718232045,318.1818181818182h2.983425414364641v3.4933817953242396h-2.983425414364641Z" fill="#f58518"/><path d="M550.4419889502763,305.1421941589305h2.983425414364641v13.039624022887665h-2.983425414364641Z" fill="#4c78a8"/><path d="M553.756906077348,308.8220373670025h2.983425414364641v9.359780814815679h-2.983425414364641Z" fill="#4c78a8"/><path d="M557.0718232044198,308.4337169223277h2.983425414364641v9.748101259490511h-2.983425414364641Z" fill="#4c78a8"/><path d="M560.3867403314916,307.82344543045434h2.983425414364641v10.358372751363845h-2.983425414364641Z" fill="#4c78a8"/><path d="M563.7016574585634,306.06107524984736h2.983425414364641v12.120742931970824h-2.983425414364641Z" fill="#4c78a8"/><path d="M567.0165745856352,305.80861062805576h2.983425414364641v12.373207553762427h-2.983425414364641Z" fill="#4c78a8"/><path d="M570.3314917127072,306.0441754239187h2.983425414364641v12.13764275789947h-2.983425414364641Z" fill="#4c78a8"/><path d="M573.646408839779,303.4984983115122h2.983425414364641v14.68331987030598h-2.983425414364641Z" fill="#4c78a8"/><path d="M576.9613259668508,303.1400342259782h2.983425414364641v15.041783955840003h-2.983425414364641Z" fill="#4c78a8"/><path d="M580.2762430939226,303.10116462634176h2.983425414364641v15.080653555476431h-2.983425414364641Z" fill="#4c78a8"/><path d="M583.5911602209944,302.36057669897366h2.983425414364641v15.821241482844528h-2.983425414364641Z" fill="#4c78a8"/><path d="M586.9060773480662,301.86663234224386h2.983425414364641v16.315185839574326h-2.983425414364641Z" fill="#4c78a8"/><path d="M590.220994475138,302.257487760808h2.983425414364641v15.924330421010211h-2.983425414364641Z" fill="#4c78a8"/><path d="M593.5359116022098,302.30433783379954h2.983425414364641v15.87748034801865h-2.983425414364641Z" fill="#4c78a8"/><path d="M596.8508287292818,302.438315898246h2.983425414364641v15.743502283572184h-2.983425414364641Z" fill="#4c78a8"/></g><g class="mark-rule role-mark concat_1_layer_1_marks" role="graphics-symbol" aria-roledescription="rule mark container"><line transform="translate(600,292.4350272672307)" x2="-600" y2="0" stroke="#30BCED" stroke-width="1.5"/></g><g class="mark-rule role-mark concat_1_layer_2_marks" role="graphics-symbol" aria-roledescription="rule mark container"><line transform="translate(600,273.5112490332701)" x2="-600" y2="0" stroke="black" stroke-width="1.5"/></g></g><path class="foreground" aria-hidden="true" d="" display="none"/></g></g><g class="mark-group role-legend" role="graphics-symbol" aria-roledescription="legend" aria-label="Symbol legend titled 'Removed More Misinfo' for fill color with 2 values: FIBers, Influentials"><g transform="translate(725,0)"><path class="background" aria-hidden="true" d="M0,0h121v40h-121Z" pointer-events="none"/><g><g class="mark-group role-legend-entry"><g transform="translate(0,16)"><path class="background" aria-hidden="true" d="M0,0h0v0h0Z" pointer-events="none"/><g><g class="mark-group role-scope" role="graphics-object" aria-roledescription="group mark container"><g transform="translate(0,0)"><path class="background" aria-hidden="true" d="M0,0h63.83333206176758v11h-63.83333206176758Z" pointer-events="none" opacity="1"/><g><g class="mark-symbol role-legend-symbol" pointer-events="none"><path transform="translate(6,6)" d="M-5,-5h10v10h-10Z" fill="#4c78a8" stroke-width="1.5" opacity="1"/></g><g class="mark-text role-legend-label" pointer-events="none"><text text-anchor="start" transform="translate(16,9)" font-family="sans-serif" font-size="10px" fill="#000" opacity="1">FIBers</text></g></g><path class="foreground" aria-hidden="true" d="" pointer-events="none" display="none"/></g><g transform="translate(0,13)"><path class="background" aria-hidden="true" d="M0,0h63.83333206176758v11h-63.83333206176758Z" pointer-events="none" opacity="1"/><g><g class="mark-symbol role-legend-symbol" pointer-events="none"><path transform="translate(6,6)" d="M-5,-5h10v10h-10Z" fill="#f58518" stroke-width="1.5" opacity="1"/></g><g class="mark-text role-legend-label" pointer-events="none"><text text-anchor="start" transform="translate(16,9)" font-family="sans-serif" font-size="10px" fill="#000" opacity="1">Influentials</text></g></g><path class="foreground" aria-hidden="true" d="" pointer-events="none" display="none"/></g></g></g><path class="foreground" aria-hidden="true" d="" pointer-events="none" display="none"/></g></g><g class="mark-text role-legend-title" pointer-events="none"><text text-anchor="start" transform="translate(0,9)" font-family="sans-serif" font-size="11px" font-weight="bold" fill="#000" opacity="1">Removed More Misinfo</text></g></g><path class="foreground" aria-hidden="true" d="" pointer-events="none" display="none"/></g></g></g><path class="foreground" aria-hidden="true" d="" display="none"/></g></g></g></svg>